<?xml version="1.0" encoding="utf-8" standalone="no"?>
<!DOCTYPE svg PUBLIC "-//W3C//DTD SVG 1.1//EN"
  "http://www.w3.org/Graphics/SVG/1.1/DTD/svg11.dtd">
<svg xmlns:xlink="http://www.w3.org/1999/xlink" width="719.33875pt" height="340.529688pt" viewBox="0 0 719.33875 340.529688" xmlns="http://www.w3.org/2000/svg" version="1.1">
 <metadata>
  <rdf:RDF xmlns:dc="http://purl.org/dc/elements/1.1/" xmlns:cc="http://creativecommons.org/ns#" xmlns:rdf="http://www.w3.org/1999/02/22-rdf-syntax-ns#">
   <cc:Work>
    <dc:type rdf:resource="http://purl.org/dc/dcmitype/StillImage"/>
    <dc:date>2026-04-06T03:03:35.313782</dc:date>
    <dc:format>image/svg+xml</dc:format>
    <dc:creator>
     <cc:Agent>
      <dc:title>Matplotlib v3.10.8, https://matplotlib.org/</dc:title>
     </cc:Agent>
    </dc:creator>
   </cc:Work>
  </rdf:RDF>
 </metadata>
 <defs>
  <style type="text/css">*{stroke-linejoin: round; stroke-linecap: butt}</style>
 </defs>
 <g id="figure_1">
  <g id="patch_1">
   <path d="M 0 340.529688 
L 719.33875 340.529688 
L 719.33875 0 
L 0 0 
z
" style="fill: #0d1117"/>
  </g>
  <g id="axes_1">
   <g id="patch_2">
    <path d="M 42.53875 301.037813 
L 712.13875 301.037813 
L 712.13875 23.837812 
L 42.53875 23.837812 
z
" style="fill: #0d1117"/>
   </g>
   <g id="matplotlib.axis_1">
    <g id="xtick_1">
     <g id="line2d_1">
      <path d="M 71.755219 301.037813 
L 71.755219 23.837812 
" clip-path="url(#p9751808f20)" style="fill: none; stroke: #21262d; stroke-opacity: 0.6; stroke-width: 0.5; stroke-linecap: square"/>
     </g>
     <g id="line2d_2">
      <defs>
       <path id="mf63b7c8e35" d="M 0 0 
L 0 3.5 
" style="stroke: #c9d1d9; stroke-width: 0.8"/>
      </defs>
      <g>
       <use xlink:href="#mf63b7c8e35" x="71.755219" y="301.037813" style="fill: #c9d1d9; stroke: #c9d1d9; stroke-width: 0.8"/>
      </g>
     </g>
     <g id="text_1">
      <!-- 0 -->
      <g style="fill: #c9d1d9" transform="translate(68.573969 315.63625) scale(0.1 -0.1)">
       <defs>
        <path id="DejaVuSans-30" d="M 2034 4250 
Q 1547 4250 1301 3770 
Q 1056 3291 1056 2328 
Q 1056 1369 1301 889 
Q 1547 409 2034 409 
Q 2525 409 2770 889 
Q 3016 1369 3016 2328 
Q 3016 3291 2770 3770 
Q 2525 4250 2034 4250 
z
M 2034 4750 
Q 2819 4750 3233 4129 
Q 3647 3509 3647 2328 
Q 3647 1150 3233 529 
Q 2819 -91 2034 -91 
Q 1250 -91 836 529 
Q 422 1150 422 2328 
Q 422 3509 836 4129 
Q 1250 4750 2034 4750 
z
" transform="scale(0.015625)"/>
       </defs>
       <use xlink:href="#DejaVuSans-30"/>
      </g>
     </g>
    </g>
    <g id="xtick_2">
     <g id="line2d_3">
      <path d="M 193.744653 301.037813 
L 193.744653 23.837812 
" clip-path="url(#p9751808f20)" style="fill: none; stroke: #21262d; stroke-opacity: 0.6; stroke-width: 0.5; stroke-linecap: square"/>
     </g>
     <g id="line2d_4">
      <g>
       <use xlink:href="#mf63b7c8e35" x="193.744653" y="301.037813" style="fill: #c9d1d9; stroke: #c9d1d9; stroke-width: 0.8"/>
      </g>
     </g>
     <g id="text_2">
      <!-- 100 -->
      <g style="fill: #c9d1d9" transform="translate(184.200903 315.63625) scale(0.1 -0.1)">
       <defs>
        <path id="DejaVuSans-31" d="M 794 531 
L 1825 531 
L 1825 4091 
L 703 3866 
L 703 4441 
L 1819 4666 
L 2450 4666 
L 2450 531 
L 3481 531 
L 3481 0 
L 794 0 
L 794 531 
z
" transform="scale(0.015625)"/>
       </defs>
       <use xlink:href="#DejaVuSans-31"/>
       <use xlink:href="#DejaVuSans-30" transform="translate(63.623047 0)"/>
       <use xlink:href="#DejaVuSans-30" transform="translate(127.246094 0)"/>
      </g>
     </g>
    </g>
    <g id="xtick_3">
     <g id="line2d_5">
      <path d="M 315.734086 301.037813 
L 315.734086 23.837812 
" clip-path="url(#p9751808f20)" style="fill: none; stroke: #21262d; stroke-opacity: 0.6; stroke-width: 0.5; stroke-linecap: square"/>
     </g>
     <g id="line2d_6">
      <g>
       <use xlink:href="#mf63b7c8e35" x="315.734086" y="301.037813" style="fill: #c9d1d9; stroke: #c9d1d9; stroke-width: 0.8"/>
      </g>
     </g>
     <g id="text_3">
      <!-- 200 -->
      <g style="fill: #c9d1d9" transform="translate(306.190336 315.63625) scale(0.1 -0.1)">
       <defs>
        <path id="DejaVuSans-32" d="M 1228 531 
L 3431 531 
L 3431 0 
L 469 0 
L 469 531 
Q 828 903 1448 1529 
Q 2069 2156 2228 2338 
Q 2531 2678 2651 2914 
Q 2772 3150 2772 3378 
Q 2772 3750 2511 3984 
Q 2250 4219 1831 4219 
Q 1534 4219 1204 4116 
Q 875 4013 500 3803 
L 500 4441 
Q 881 4594 1212 4672 
Q 1544 4750 1819 4750 
Q 2544 4750 2975 4387 
Q 3406 4025 3406 3419 
Q 3406 3131 3298 2873 
Q 3191 2616 2906 2266 
Q 2828 2175 2409 1742 
Q 1991 1309 1228 531 
z
" transform="scale(0.015625)"/>
       </defs>
       <use xlink:href="#DejaVuSans-32"/>
       <use xlink:href="#DejaVuSans-30" transform="translate(63.623047 0)"/>
       <use xlink:href="#DejaVuSans-30" transform="translate(127.246094 0)"/>
      </g>
     </g>
    </g>
    <g id="xtick_4">
     <g id="line2d_7">
      <path d="M 437.72352 301.037813 
L 437.72352 23.837812 
" clip-path="url(#p9751808f20)" style="fill: none; stroke: #21262d; stroke-opacity: 0.6; stroke-width: 0.5; stroke-linecap: square"/>
     </g>
     <g id="line2d_8">
      <g>
       <use xlink:href="#mf63b7c8e35" x="437.72352" y="301.037813" style="fill: #c9d1d9; stroke: #c9d1d9; stroke-width: 0.8"/>
      </g>
     </g>
     <g id="text_4">
      <!-- 300 -->
      <g style="fill: #c9d1d9" transform="translate(428.17977 315.63625) scale(0.1 -0.1)">
       <defs>
        <path id="DejaVuSans-33" d="M 2597 2516 
Q 3050 2419 3304 2112 
Q 3559 1806 3559 1356 
Q 3559 666 3084 287 
Q 2609 -91 1734 -91 
Q 1441 -91 1130 -33 
Q 819 25 488 141 
L 488 750 
Q 750 597 1062 519 
Q 1375 441 1716 441 
Q 2309 441 2620 675 
Q 2931 909 2931 1356 
Q 2931 1769 2642 2001 
Q 2353 2234 1838 2234 
L 1294 2234 
L 1294 2753 
L 1863 2753 
Q 2328 2753 2575 2939 
Q 2822 3125 2822 3475 
Q 2822 3834 2567 4026 
Q 2313 4219 1838 4219 
Q 1578 4219 1281 4162 
Q 984 4106 628 3988 
L 628 4550 
Q 988 4650 1302 4700 
Q 1616 4750 1894 4750 
Q 2613 4750 3031 4423 
Q 3450 4097 3450 3541 
Q 3450 3153 3228 2886 
Q 3006 2619 2597 2516 
z
" transform="scale(0.015625)"/>
       </defs>
       <use xlink:href="#DejaVuSans-33"/>
       <use xlink:href="#DejaVuSans-30" transform="translate(63.623047 0)"/>
       <use xlink:href="#DejaVuSans-30" transform="translate(127.246094 0)"/>
      </g>
     </g>
    </g>
    <g id="xtick_5">
     <g id="line2d_9">
      <path d="M 559.712953 301.037813 
L 559.712953 23.837812 
" clip-path="url(#p9751808f20)" style="fill: none; stroke: #21262d; stroke-opacity: 0.6; stroke-width: 0.5; stroke-linecap: square"/>
     </g>
     <g id="line2d_10">
      <g>
       <use xlink:href="#mf63b7c8e35" x="559.712953" y="301.037813" style="fill: #c9d1d9; stroke: #c9d1d9; stroke-width: 0.8"/>
      </g>
     </g>
     <g id="text_5">
      <!-- 400 -->
      <g style="fill: #c9d1d9" transform="translate(550.169203 315.63625) scale(0.1 -0.1)">
       <defs>
        <path id="DejaVuSans-34" d="M 2419 4116 
L 825 1625 
L 2419 1625 
L 2419 4116 
z
M 2253 4666 
L 3047 4666 
L 3047 1625 
L 3713 1625 
L 3713 1100 
L 3047 1100 
L 3047 0 
L 2419 0 
L 2419 1100 
L 313 1100 
L 313 1709 
L 2253 4666 
z
" transform="scale(0.015625)"/>
       </defs>
       <use xlink:href="#DejaVuSans-34"/>
       <use xlink:href="#DejaVuSans-30" transform="translate(63.623047 0)"/>
       <use xlink:href="#DejaVuSans-30" transform="translate(127.246094 0)"/>
      </g>
     </g>
    </g>
    <g id="xtick_6">
     <g id="line2d_11">
      <path d="M 681.702386 301.037813 
L 681.702386 23.837812 
" clip-path="url(#p9751808f20)" style="fill: none; stroke: #21262d; stroke-opacity: 0.6; stroke-width: 0.5; stroke-linecap: square"/>
     </g>
     <g id="line2d_12">
      <g>
       <use xlink:href="#mf63b7c8e35" x="681.702386" y="301.037813" style="fill: #c9d1d9; stroke: #c9d1d9; stroke-width: 0.8"/>
      </g>
     </g>
     <g id="text_6">
      <!-- 500 -->
      <g style="fill: #c9d1d9" transform="translate(672.158636 315.63625) scale(0.1 -0.1)">
       <defs>
        <path id="DejaVuSans-35" d="M 691 4666 
L 3169 4666 
L 3169 4134 
L 1269 4134 
L 1269 2991 
Q 1406 3038 1543 3061 
Q 1681 3084 1819 3084 
Q 2600 3084 3056 2656 
Q 3513 2228 3513 1497 
Q 3513 744 3044 326 
Q 2575 -91 1722 -91 
Q 1428 -91 1123 -41 
Q 819 9 494 109 
L 494 744 
Q 775 591 1075 516 
Q 1375 441 1709 441 
Q 2250 441 2565 725 
Q 2881 1009 2881 1497 
Q 2881 1984 2565 2268 
Q 2250 2553 1709 2553 
Q 1456 2553 1204 2497 
Q 953 2441 691 2322 
L 691 4666 
z
" transform="scale(0.015625)"/>
       </defs>
       <use xlink:href="#DejaVuSans-35"/>
       <use xlink:href="#DejaVuSans-30" transform="translate(63.623047 0)"/>
       <use xlink:href="#DejaVuSans-30" transform="translate(127.246094 0)"/>
      </g>
     </g>
    </g>
    <g id="text_7">
     <!-- Training Step -->
     <g style="fill: #c9d1d9" transform="translate(338.09875 330.834063) scale(0.12 -0.12)">
      <defs>
       <path id="DejaVuSans-54" d="M -19 4666 
L 3928 4666 
L 3928 4134 
L 2272 4134 
L 2272 0 
L 1638 0 
L 1638 4134 
L -19 4134 
L -19 4666 
z
" transform="scale(0.015625)"/>
       <path id="DejaVuSans-72" d="M 2631 2963 
Q 2534 3019 2420 3045 
Q 2306 3072 2169 3072 
Q 1681 3072 1420 2755 
Q 1159 2438 1159 1844 
L 1159 0 
L 581 0 
L 581 3500 
L 1159 3500 
L 1159 2956 
Q 1341 3275 1631 3429 
Q 1922 3584 2338 3584 
Q 2397 3584 2469 3576 
Q 2541 3569 2628 3553 
L 2631 2963 
z
" transform="scale(0.015625)"/>
       <path id="DejaVuSans-61" d="M 2194 1759 
Q 1497 1759 1228 1600 
Q 959 1441 959 1056 
Q 959 750 1161 570 
Q 1363 391 1709 391 
Q 2188 391 2477 730 
Q 2766 1069 2766 1631 
L 2766 1759 
L 2194 1759 
z
M 3341 1997 
L 3341 0 
L 2766 0 
L 2766 531 
Q 2569 213 2275 61 
Q 1981 -91 1556 -91 
Q 1019 -91 701 211 
Q 384 513 384 1019 
Q 384 1609 779 1909 
Q 1175 2209 1959 2209 
L 2766 2209 
L 2766 2266 
Q 2766 2663 2505 2880 
Q 2244 3097 1772 3097 
Q 1472 3097 1187 3025 
Q 903 2953 641 2809 
L 641 3341 
Q 956 3463 1253 3523 
Q 1550 3584 1831 3584 
Q 2591 3584 2966 3190 
Q 3341 2797 3341 1997 
z
" transform="scale(0.015625)"/>
       <path id="DejaVuSans-69" d="M 603 3500 
L 1178 3500 
L 1178 0 
L 603 0 
L 603 3500 
z
M 603 4863 
L 1178 4863 
L 1178 4134 
L 603 4134 
L 603 4863 
z
" transform="scale(0.015625)"/>
       <path id="DejaVuSans-6e" d="M 3513 2113 
L 3513 0 
L 2938 0 
L 2938 2094 
Q 2938 2591 2744 2837 
Q 2550 3084 2163 3084 
Q 1697 3084 1428 2787 
Q 1159 2491 1159 1978 
L 1159 0 
L 581 0 
L 581 3500 
L 1159 3500 
L 1159 2956 
Q 1366 3272 1645 3428 
Q 1925 3584 2291 3584 
Q 2894 3584 3203 3211 
Q 3513 2838 3513 2113 
z
" transform="scale(0.015625)"/>
       <path id="DejaVuSans-67" d="M 2906 1791 
Q 2906 2416 2648 2759 
Q 2391 3103 1925 3103 
Q 1463 3103 1205 2759 
Q 947 2416 947 1791 
Q 947 1169 1205 825 
Q 1463 481 1925 481 
Q 2391 481 2648 825 
Q 2906 1169 2906 1791 
z
M 3481 434 
Q 3481 -459 3084 -895 
Q 2688 -1331 1869 -1331 
Q 1566 -1331 1297 -1286 
Q 1028 -1241 775 -1147 
L 775 -588 
Q 1028 -725 1275 -790 
Q 1522 -856 1778 -856 
Q 2344 -856 2625 -561 
Q 2906 -266 2906 331 
L 2906 616 
Q 2728 306 2450 153 
Q 2172 0 1784 0 
Q 1141 0 747 490 
Q 353 981 353 1791 
Q 353 2603 747 3093 
Q 1141 3584 1784 3584 
Q 2172 3584 2450 3431 
Q 2728 3278 2906 2969 
L 2906 3500 
L 3481 3500 
L 3481 434 
z
" transform="scale(0.015625)"/>
       <path id="DejaVuSans-20" transform="scale(0.015625)"/>
       <path id="DejaVuSans-53" d="M 3425 4513 
L 3425 3897 
Q 3066 4069 2747 4153 
Q 2428 4238 2131 4238 
Q 1616 4238 1336 4038 
Q 1056 3838 1056 3469 
Q 1056 3159 1242 3001 
Q 1428 2844 1947 2747 
L 2328 2669 
Q 3034 2534 3370 2195 
Q 3706 1856 3706 1288 
Q 3706 609 3251 259 
Q 2797 -91 1919 -91 
Q 1588 -91 1214 -16 
Q 841 59 441 206 
L 441 856 
Q 825 641 1194 531 
Q 1563 422 1919 422 
Q 2459 422 2753 634 
Q 3047 847 3047 1241 
Q 3047 1584 2836 1778 
Q 2625 1972 2144 2069 
L 1759 2144 
Q 1053 2284 737 2584 
Q 422 2884 422 3419 
Q 422 4038 858 4394 
Q 1294 4750 2059 4750 
Q 2388 4750 2728 4690 
Q 3069 4631 3425 4513 
z
" transform="scale(0.015625)"/>
       <path id="DejaVuSans-74" d="M 1172 4494 
L 1172 3500 
L 2356 3500 
L 2356 3053 
L 1172 3053 
L 1172 1153 
Q 1172 725 1289 603 
Q 1406 481 1766 481 
L 2356 481 
L 2356 0 
L 1766 0 
Q 1100 0 847 248 
Q 594 497 594 1153 
L 594 3053 
L 172 3053 
L 172 3500 
L 594 3500 
L 594 4494 
L 1172 4494 
z
" transform="scale(0.015625)"/>
       <path id="DejaVuSans-65" d="M 3597 1894 
L 3597 1613 
L 953 1613 
Q 991 1019 1311 708 
Q 1631 397 2203 397 
Q 2534 397 2845 478 
Q 3156 559 3463 722 
L 3463 178 
Q 3153 47 2828 -22 
Q 2503 -91 2169 -91 
Q 1331 -91 842 396 
Q 353 884 353 1716 
Q 353 2575 817 3079 
Q 1281 3584 2069 3584 
Q 2775 3584 3186 3129 
Q 3597 2675 3597 1894 
z
M 3022 2063 
Q 3016 2534 2758 2815 
Q 2500 3097 2075 3097 
Q 1594 3097 1305 2825 
Q 1016 2553 972 2059 
L 3022 2063 
z
" transform="scale(0.015625)"/>
       <path id="DejaVuSans-70" d="M 1159 525 
L 1159 -1331 
L 581 -1331 
L 581 3500 
L 1159 3500 
L 1159 2969 
Q 1341 3281 1617 3432 
Q 1894 3584 2278 3584 
Q 2916 3584 3314 3078 
Q 3713 2572 3713 1747 
Q 3713 922 3314 415 
Q 2916 -91 2278 -91 
Q 1894 -91 1617 61 
Q 1341 213 1159 525 
z
M 3116 1747 
Q 3116 2381 2855 2742 
Q 2594 3103 2138 3103 
Q 1681 3103 1420 2742 
Q 1159 2381 1159 1747 
Q 1159 1113 1420 752 
Q 1681 391 2138 391 
Q 2594 391 2855 752 
Q 3116 1113 3116 1747 
z
" transform="scale(0.015625)"/>
      </defs>
      <use xlink:href="#DejaVuSans-54"/>
      <use xlink:href="#DejaVuSans-72" transform="translate(46.333984 0)"/>
      <use xlink:href="#DejaVuSans-61" transform="translate(87.447266 0)"/>
      <use xlink:href="#DejaVuSans-69" transform="translate(148.726562 0)"/>
      <use xlink:href="#DejaVuSans-6e" transform="translate(176.509766 0)"/>
      <use xlink:href="#DejaVuSans-69" transform="translate(239.888672 0)"/>
      <use xlink:href="#DejaVuSans-6e" transform="translate(267.671875 0)"/>
      <use xlink:href="#DejaVuSans-67" transform="translate(331.050781 0)"/>
      <use xlink:href="#DejaVuSans-20" transform="translate(394.527344 0)"/>
      <use xlink:href="#DejaVuSans-53" transform="translate(426.314453 0)"/>
      <use xlink:href="#DejaVuSans-74" transform="translate(489.791016 0)"/>
      <use xlink:href="#DejaVuSans-65" transform="translate(529 0)"/>
      <use xlink:href="#DejaVuSans-70" transform="translate(590.523438 0)"/>
     </g>
    </g>
   </g>
   <g id="matplotlib.axis_2">
    <g id="ytick_1">
     <g id="line2d_13">
      <path d="M 42.53875 276.446522 
L 712.13875 276.446522 
" clip-path="url(#p9751808f20)" style="fill: none; stroke: #21262d; stroke-opacity: 0.6; stroke-width: 0.5; stroke-linecap: square"/>
     </g>
     <g id="line2d_14">
      <defs>
       <path id="mc9d793a1f6" d="M 0 0 
L -3.5 0 
" style="stroke: #c9d1d9; stroke-width: 0.8"/>
      </defs>
      <g>
       <use xlink:href="#mc9d793a1f6" x="42.53875" y="276.446522" style="fill: #c9d1d9; stroke: #c9d1d9; stroke-width: 0.8"/>
      </g>
     </g>
     <g id="text_8">
      <!-- 35 -->
      <g style="fill: #c9d1d9" transform="translate(22.81375 280.24574) scale(0.1 -0.1)">
       <use xlink:href="#DejaVuSans-33"/>
       <use xlink:href="#DejaVuSans-35" transform="translate(63.623047 0)"/>
      </g>
     </g>
    </g>
    <g id="ytick_2">
     <g id="line2d_15">
      <path d="M 42.53875 239.572934 
L 712.13875 239.572934 
" clip-path="url(#p9751808f20)" style="fill: none; stroke: #21262d; stroke-opacity: 0.6; stroke-width: 0.5; stroke-linecap: square"/>
     </g>
     <g id="line2d_16">
      <g>
       <use xlink:href="#mc9d793a1f6" x="42.53875" y="239.572934" style="fill: #c9d1d9; stroke: #c9d1d9; stroke-width: 0.8"/>
      </g>
     </g>
     <g id="text_9">
      <!-- 40 -->
      <g style="fill: #c9d1d9" transform="translate(22.81375 243.372152) scale(0.1 -0.1)">
       <use xlink:href="#DejaVuSans-34"/>
       <use xlink:href="#DejaVuSans-30" transform="translate(63.623047 0)"/>
      </g>
     </g>
    </g>
    <g id="ytick_3">
     <g id="line2d_17">
      <path d="M 42.53875 202.699346 
L 712.13875 202.699346 
" clip-path="url(#p9751808f20)" style="fill: none; stroke: #21262d; stroke-opacity: 0.6; stroke-width: 0.5; stroke-linecap: square"/>
     </g>
     <g id="line2d_18">
      <g>
       <use xlink:href="#mc9d793a1f6" x="42.53875" y="202.699346" style="fill: #c9d1d9; stroke: #c9d1d9; stroke-width: 0.8"/>
      </g>
     </g>
     <g id="text_10">
      <!-- 45 -->
      <g style="fill: #c9d1d9" transform="translate(22.81375 206.498564) scale(0.1 -0.1)">
       <use xlink:href="#DejaVuSans-34"/>
       <use xlink:href="#DejaVuSans-35" transform="translate(63.623047 0)"/>
      </g>
     </g>
    </g>
    <g id="ytick_4">
     <g id="line2d_19">
      <path d="M 42.53875 165.825758 
L 712.13875 165.825758 
" clip-path="url(#p9751808f20)" style="fill: none; stroke: #21262d; stroke-opacity: 0.6; stroke-width: 0.5; stroke-linecap: square"/>
     </g>
     <g id="line2d_20">
      <g>
       <use xlink:href="#mc9d793a1f6" x="42.53875" y="165.825758" style="fill: #c9d1d9; stroke: #c9d1d9; stroke-width: 0.8"/>
      </g>
     </g>
     <g id="text_11">
      <!-- 50 -->
      <g style="fill: #c9d1d9" transform="translate(22.81375 169.624977) scale(0.1 -0.1)">
       <use xlink:href="#DejaVuSans-35"/>
       <use xlink:href="#DejaVuSans-30" transform="translate(63.623047 0)"/>
      </g>
     </g>
    </g>
    <g id="ytick_5">
     <g id="line2d_21">
      <path d="M 42.53875 128.95217 
L 712.13875 128.95217 
" clip-path="url(#p9751808f20)" style="fill: none; stroke: #21262d; stroke-opacity: 0.6; stroke-width: 0.5; stroke-linecap: square"/>
     </g>
     <g id="line2d_22">
      <g>
       <use xlink:href="#mc9d793a1f6" x="42.53875" y="128.95217" style="fill: #c9d1d9; stroke: #c9d1d9; stroke-width: 0.8"/>
      </g>
     </g>
     <g id="text_12">
      <!-- 55 -->
      <g style="fill: #c9d1d9" transform="translate(22.81375 132.751389) scale(0.1 -0.1)">
       <use xlink:href="#DejaVuSans-35"/>
       <use xlink:href="#DejaVuSans-35" transform="translate(63.623047 0)"/>
      </g>
     </g>
    </g>
    <g id="ytick_6">
     <g id="line2d_23">
      <path d="M 42.53875 92.078582 
L 712.13875 92.078582 
" clip-path="url(#p9751808f20)" style="fill: none; stroke: #21262d; stroke-opacity: 0.6; stroke-width: 0.5; stroke-linecap: square"/>
     </g>
     <g id="line2d_24">
      <g>
       <use xlink:href="#mc9d793a1f6" x="42.53875" y="92.078582" style="fill: #c9d1d9; stroke: #c9d1d9; stroke-width: 0.8"/>
      </g>
     </g>
     <g id="text_13">
      <!-- 60 -->
      <g style="fill: #c9d1d9" transform="translate(22.81375 95.877801) scale(0.1 -0.1)">
       <defs>
        <path id="DejaVuSans-36" d="M 2113 2584 
Q 1688 2584 1439 2293 
Q 1191 2003 1191 1497 
Q 1191 994 1439 701 
Q 1688 409 2113 409 
Q 2538 409 2786 701 
Q 3034 994 3034 1497 
Q 3034 2003 2786 2293 
Q 2538 2584 2113 2584 
z
M 3366 4563 
L 3366 3988 
Q 3128 4100 2886 4159 
Q 2644 4219 2406 4219 
Q 1781 4219 1451 3797 
Q 1122 3375 1075 2522 
Q 1259 2794 1537 2939 
Q 1816 3084 2150 3084 
Q 2853 3084 3261 2657 
Q 3669 2231 3669 1497 
Q 3669 778 3244 343 
Q 2819 -91 2113 -91 
Q 1303 -91 875 529 
Q 447 1150 447 2328 
Q 447 3434 972 4092 
Q 1497 4750 2381 4750 
Q 2619 4750 2861 4703 
Q 3103 4656 3366 4563 
z
" transform="scale(0.015625)"/>
       </defs>
       <use xlink:href="#DejaVuSans-36"/>
       <use xlink:href="#DejaVuSans-30" transform="translate(63.623047 0)"/>
      </g>
     </g>
    </g>
    <g id="ytick_7">
     <g id="line2d_25">
      <path d="M 42.53875 55.204994 
L 712.13875 55.204994 
" clip-path="url(#p9751808f20)" style="fill: none; stroke: #21262d; stroke-opacity: 0.6; stroke-width: 0.5; stroke-linecap: square"/>
     </g>
     <g id="line2d_26">
      <g>
       <use xlink:href="#mc9d793a1f6" x="42.53875" y="55.204994" style="fill: #c9d1d9; stroke: #c9d1d9; stroke-width: 0.8"/>
      </g>
     </g>
     <g id="text_14">
      <!-- 65 -->
      <g style="fill: #c9d1d9" transform="translate(22.81375 59.004213) scale(0.1 -0.1)">
       <use xlink:href="#DejaVuSans-36"/>
       <use xlink:href="#DejaVuSans-35" transform="translate(63.623047 0)"/>
      </g>
     </g>
    </g>
    <g id="text_15">
     <!-- Step Time (seconds) -->
     <g style="fill: #c9d1d9" transform="translate(16.318125 223.800938) rotate(-90) scale(0.12 -0.12)">
      <defs>
       <path id="DejaVuSans-6d" d="M 3328 2828 
Q 3544 3216 3844 3400 
Q 4144 3584 4550 3584 
Q 5097 3584 5394 3201 
Q 5691 2819 5691 2113 
L 5691 0 
L 5113 0 
L 5113 2094 
Q 5113 2597 4934 2840 
Q 4756 3084 4391 3084 
Q 3944 3084 3684 2787 
Q 3425 2491 3425 1978 
L 3425 0 
L 2847 0 
L 2847 2094 
Q 2847 2600 2669 2842 
Q 2491 3084 2119 3084 
Q 1678 3084 1418 2786 
Q 1159 2488 1159 1978 
L 1159 0 
L 581 0 
L 581 3500 
L 1159 3500 
L 1159 2956 
Q 1356 3278 1631 3431 
Q 1906 3584 2284 3584 
Q 2666 3584 2933 3390 
Q 3200 3197 3328 2828 
z
" transform="scale(0.015625)"/>
       <path id="DejaVuSans-28" d="M 1984 4856 
Q 1566 4138 1362 3434 
Q 1159 2731 1159 2009 
Q 1159 1288 1364 580 
Q 1569 -128 1984 -844 
L 1484 -844 
Q 1016 -109 783 600 
Q 550 1309 550 2009 
Q 550 2706 781 3412 
Q 1013 4119 1484 4856 
L 1984 4856 
z
" transform="scale(0.015625)"/>
       <path id="DejaVuSans-73" d="M 2834 3397 
L 2834 2853 
Q 2591 2978 2328 3040 
Q 2066 3103 1784 3103 
Q 1356 3103 1142 2972 
Q 928 2841 928 2578 
Q 928 2378 1081 2264 
Q 1234 2150 1697 2047 
L 1894 2003 
Q 2506 1872 2764 1633 
Q 3022 1394 3022 966 
Q 3022 478 2636 193 
Q 2250 -91 1575 -91 
Q 1294 -91 989 -36 
Q 684 19 347 128 
L 347 722 
Q 666 556 975 473 
Q 1284 391 1588 391 
Q 1994 391 2212 530 
Q 2431 669 2431 922 
Q 2431 1156 2273 1281 
Q 2116 1406 1581 1522 
L 1381 1569 
Q 847 1681 609 1914 
Q 372 2147 372 2553 
Q 372 3047 722 3315 
Q 1072 3584 1716 3584 
Q 2034 3584 2315 3537 
Q 2597 3491 2834 3397 
z
" transform="scale(0.015625)"/>
       <path id="DejaVuSans-63" d="M 3122 3366 
L 3122 2828 
Q 2878 2963 2633 3030 
Q 2388 3097 2138 3097 
Q 1578 3097 1268 2742 
Q 959 2388 959 1747 
Q 959 1106 1268 751 
Q 1578 397 2138 397 
Q 2388 397 2633 464 
Q 2878 531 3122 666 
L 3122 134 
Q 2881 22 2623 -34 
Q 2366 -91 2075 -91 
Q 1284 -91 818 406 
Q 353 903 353 1747 
Q 353 2603 823 3093 
Q 1294 3584 2113 3584 
Q 2378 3584 2631 3529 
Q 2884 3475 3122 3366 
z
" transform="scale(0.015625)"/>
       <path id="DejaVuSans-6f" d="M 1959 3097 
Q 1497 3097 1228 2736 
Q 959 2375 959 1747 
Q 959 1119 1226 758 
Q 1494 397 1959 397 
Q 2419 397 2687 759 
Q 2956 1122 2956 1747 
Q 2956 2369 2687 2733 
Q 2419 3097 1959 3097 
z
M 1959 3584 
Q 2709 3584 3137 3096 
Q 3566 2609 3566 1747 
Q 3566 888 3137 398 
Q 2709 -91 1959 -91 
Q 1206 -91 779 398 
Q 353 888 353 1747 
Q 353 2609 779 3096 
Q 1206 3584 1959 3584 
z
" transform="scale(0.015625)"/>
       <path id="DejaVuSans-64" d="M 2906 2969 
L 2906 4863 
L 3481 4863 
L 3481 0 
L 2906 0 
L 2906 525 
Q 2725 213 2448 61 
Q 2172 -91 1784 -91 
Q 1150 -91 751 415 
Q 353 922 353 1747 
Q 353 2572 751 3078 
Q 1150 3584 1784 3584 
Q 2172 3584 2448 3432 
Q 2725 3281 2906 2969 
z
M 947 1747 
Q 947 1113 1208 752 
Q 1469 391 1925 391 
Q 2381 391 2643 752 
Q 2906 1113 2906 1747 
Q 2906 2381 2643 2742 
Q 2381 3103 1925 3103 
Q 1469 3103 1208 2742 
Q 947 2381 947 1747 
z
" transform="scale(0.015625)"/>
       <path id="DejaVuSans-29" d="M 513 4856 
L 1013 4856 
Q 1481 4119 1714 3412 
Q 1947 2706 1947 2009 
Q 1947 1309 1714 600 
Q 1481 -109 1013 -844 
L 513 -844 
Q 928 -128 1133 580 
Q 1338 1288 1338 2009 
Q 1338 2731 1133 3434 
Q 928 4138 513 4856 
z
" transform="scale(0.015625)"/>
      </defs>
      <use xlink:href="#DejaVuSans-53"/>
      <use xlink:href="#DejaVuSans-74" transform="translate(63.476562 0)"/>
      <use xlink:href="#DejaVuSans-65" transform="translate(102.685547 0)"/>
      <use xlink:href="#DejaVuSans-70" transform="translate(164.208984 0)"/>
      <use xlink:href="#DejaVuSans-20" transform="translate(227.685547 0)"/>
      <use xlink:href="#DejaVuSans-54" transform="translate(259.472656 0)"/>
      <use xlink:href="#DejaVuSans-69" transform="translate(317.431641 0)"/>
      <use xlink:href="#DejaVuSans-6d" transform="translate(345.214844 0)"/>
      <use xlink:href="#DejaVuSans-65" transform="translate(442.626953 0)"/>
      <use xlink:href="#DejaVuSans-20" transform="translate(504.150391 0)"/>
      <use xlink:href="#DejaVuSans-28" transform="translate(535.9375 0)"/>
      <use xlink:href="#DejaVuSans-73" transform="translate(574.951172 0)"/>
      <use xlink:href="#DejaVuSans-65" transform="translate(627.050781 0)"/>
      <use xlink:href="#DejaVuSans-63" transform="translate(688.574219 0)"/>
      <use xlink:href="#DejaVuSans-6f" transform="translate(743.554688 0)"/>
      <use xlink:href="#DejaVuSans-6e" transform="translate(804.736328 0)"/>
      <use xlink:href="#DejaVuSans-64" transform="translate(868.115234 0)"/>
      <use xlink:href="#DejaVuSans-73" transform="translate(931.591797 0)"/>
      <use xlink:href="#DejaVuSans-29" transform="translate(983.691406 0)"/>
     </g>
    </g>
   </g>
   <g id="line2d_27">
    <path d="M 72.975114 258.707376 
L 74.195008 287.859635 
L 75.414902 288.052115 
L 76.634797 287.755651 
L 77.854691 287.582345 
L 79.074585 287.573496 
L 80.29448 287.738689 
L 81.514374 288.080876 
L 82.734268 287.720252 
L 85.174057 287.426739 
L 87.613846 287.339717 
L 88.83374 287.963618 
L 91.273529 287.1229 
L 92.493423 287.251958 
L 93.713317 287.859635 
L 94.933212 287.029241 
L 96.153106 287.147237 
L 97.373 287.978368 
L 98.592895 287.06169 
L 99.812789 287.663467 
L 101.032683 287.79695 
L 102.252578 287.635443 
L 103.472472 287.712878 
L 104.692366 287.658305 
L 105.912261 287.220984 
L 107.132155 287.723202 
L 108.352049 287.97468 
L 109.571944 287.220247 
L 110.791838 287.917895 
L 112.011732 287.4555 
L 114.451521 287.164199 
L 115.671415 287.538097 
L 116.89131 286.75269 
L 118.111204 287.732052 
L 119.331098 287.290306 
L 120.550993 287.639868 
L 121.770887 287.069802 
L 122.990781 287.90757 
L 124.210676 287.718778 
L 125.43057 287.266707 
L 127.870359 287.345617 
L 129.090253 286.819799 
L 130.310147 287.322018 
L 131.530042 287.178211 
L 132.749936 284.740867 
L 133.96983 287.749751 
L 135.189725 288.001229 
L 136.409619 287.961406 
L 140.069302 287.39429 
L 141.289196 287.975418 
L 142.509091 287.236471 
L 143.728985 287.261545 
L 144.948879 287.966568 
L 146.168774 287.647243 
L 147.388668 286.633219 
L 148.608562 287.434113 
L 149.828457 287.65093 
L 151.048351 287.487949 
L 152.268245 287.59267 
L 153.48814 287.497536 
L 154.708034 287.687804 
L 155.927928 286.80505 
L 157.147823 287.806537 
L 158.367717 287.459187 
L 162.0274 286.900921 
L 163.247294 287.339717 
L 164.467189 287.543259 
L 165.687083 287.203285 
L 166.906977 287.827923 
L 168.126872 287.876596 
L 169.346766 287.462137 
L 170.56666 287.313906 
L 171.786555 287.844885 
L 173.006449 287.431901 
L 174.226343 287.342667 
L 175.446238 287.569071 
L 176.666132 287.013755 
L 177.886026 287.500486 
L 179.105921 286.406815 
L 180.325815 287.479099 
L 181.545709 287.899458 
L 182.765604 287.675267 
L 183.985498 286.488675 
L 185.205392 287.448125 
L 186.425287 287.189273 
L 187.645181 287.264495 
L 188.865075 287.563908 
L 190.08497 286.94812 
L 191.304864 287.554321 
L 192.524758 287.307268 
L 193.744653 287.857422 
L 194.964547 287.474674 
L 196.184441 287.550634 
L 197.404336 287.957718 
L 198.62423 287.641343 
L 199.844124 287.635443 
L 201.064019 287.889871 
L 202.283913 287.647243 
L 203.503807 286.838236 
L 204.723702 287.45255 
L 205.943596 287.463612 
L 207.16349 288.065389 
L 208.383385 287.26892 
L 209.603279 287.180423 
L 210.823173 287.724677 
L 212.043068 286.999005 
L 213.262962 287.434851 
L 214.482856 287.234259 
L 215.702751 287.639131 
L 216.922645 286.372154 
L 218.142539 287.664205 
L 219.362434 287.867009 
L 220.582328 287.026292 
L 221.802222 287.395027 
L 223.022117 287.347092 
L 224.242011 287.668629 
L 225.461905 286.715078 
L 226.6818 287.425264 
L 229.121588 287.909783 
L 231.561377 286.825699 
L 232.781271 286.818325 
L 234.001166 287.549159 
L 235.22106 287.344142 
L 236.440954 286.835286 
L 237.660849 287.57792 
L 238.880743 286.900921 
L 241.320532 286.812425 
L 242.540426 287.716565 
L 243.76032 286.998268 
L 244.980215 287.770401 
L 246.200109 287.506386 
L 248.639898 287.844148 
L 249.859792 287.016704 
L 251.079686 287.414202 
L 252.299581 287.332342 
L 253.519475 287.552846 
L 254.739369 287.367741 
L 255.959264 287.631018 
L 257.179158 287.12585 
L 258.399052 286.767439 
L 259.618947 287.750489 
L 260.838841 287.855947 
L 262.058735 286.560209 
L 263.27863 287.764501 
L 264.498524 287.921582 
L 266.938313 287.069065 
L 268.158207 287.622906 
L 269.378101 287.19591 
L 270.597996 287.639868 
L 271.81789 286.779976 
L 273.037784 287.51966 
L 274.257679 286.909771 
L 275.477573 287.70919 
L 276.697467 287.20181 
L 277.917362 286.970981 
L 279.137256 287.51966 
L 280.35715 287.313168 
L 281.577045 287.597832 
L 282.796939 286.569059 
L 284.016833 287.411252 
L 285.236728 287.678954 
L 286.456622 287.547684 
L 287.676516 287.569071 
L 288.896411 287.00638 
L 290.116305 287.583083 
L 291.336199 287.427476 
L 292.556094 287.692966 
L 293.775988 287.378066 
L 294.995882 287.319805 
L 296.215777 286.912721 
L 297.435671 287.673054 
L 298.655565 287.38249 
L 299.87546 287.59857 
L 301.095354 287.032191 
L 302.315248 287.728365 
L 303.535143 287.552109 
L 304.755037 287.225409 
L 305.974931 288.018929 
L 307.194826 287.173048 
L 308.41472 287.048416 
L 310.854509 287.869222 
L 312.074403 287.768188 
L 313.294297 287.136175 
L 314.514192 287.641343 
L 315.734086 287.440751 
L 316.95398 286.638381 
L 318.173875 287.608894 
L 319.393769 287.430426 
L 320.613663 287.656092 
L 321.833558 287.005642 
L 323.053452 287.690754 
L 324.273346 287.488686 
L 325.493241 288.03884 
L 326.713135 287.488686 
L 327.933029 287.949606 
L 329.152924 287.909783 
L 330.372818 287.489424 
L 331.592712 287.864797 
L 332.812607 287.177473 
L 334.032501 287.876596 
L 335.252395 288.290318 
L 337.692184 287.578658 
L 338.912078 287.487211 
L 340.131973 287.619219 
L 341.351867 288.229845 
L 342.571761 287.97468 
L 343.791656 287.05874 
L 345.01155 287.535147 
L 347.451339 288.065389 
L 348.671233 287.545472 
L 349.891127 287.527772 
L 351.111022 286.892809 
L 352.330916 288.351528 
L 354.770705 287.358891 
L 355.990599 287.414202 
L 357.210493 287.865534 
L 359.650282 286.852986 
L 360.870176 287.501223 
L 362.090071 287.065378 
L 363.309965 287.4673 
L 364.529859 286.954757 
L 365.749754 287.191485 
L 366.969648 287.909045 
L 368.189542 287.299894 
L 369.409437 287.135437 
L 370.629331 287.65093 
L 371.849225 287.537359 
L 374.289014 287.929694 
L 375.508908 287.077915 
L 376.728803 287.621431 
L 377.948697 287.939282 
L 380.388486 286.911983 
L 381.60838 287.31538 
L 382.828275 287.156824 
L 384.048169 287.1288 
L 385.268063 286.955494 
L 386.487958 286.563897 
L 387.707852 288.201084 
L 388.927746 288.094151 
L 390.147641 286.931895 
L 392.587429 287.392078 
L 393.807324 288.083089 
L 395.027218 286.731303 
L 396.247112 287.392078 
L 397.467007 287.695178 
L 398.686901 287.284407 
L 399.906795 287.010067 
L 401.12669 287.554321 
L 402.346584 287.173786 
L 403.566478 287.435588 
L 404.786373 287.294731 
L 406.006267 287.611844 
L 407.226161 287.164936 
L 408.446056 286.976881 
L 409.66595 287.482787 
L 410.885844 287.282932 
L 412.105739 286.565372 
L 413.325633 287.567596 
L 414.545527 287.701078 
L 415.765422 286.608145 
L 416.985316 287.841935 
L 418.20521 287.561696 
L 419.425105 287.153874 
L 423.084788 287.341192 
L 424.304682 286.93632 
L 426.744471 287.767451 
L 427.964365 287.808012 
L 429.184259 287.578658 
L 430.404154 287.881021 
L 431.624048 287.499011 
L 432.843942 287.737214 
L 434.063837 287.037354 
L 435.283731 287.40314 
L 436.503625 287.576445 
L 437.72352 287.015967 
L 440.163308 287.582345 
L 441.383203 287.334555 
L 442.603097 287.536622 
L 443.822991 288.054327 
L 445.042886 287.897246 
L 446.26278 287.316855 
L 447.482674 287.950344 
L 449.922463 287.057265 
L 451.142357 287.322755 
L 452.362252 287.950344 
L 454.80204 288.205509 
L 456.021935 287.932644 
L 457.241829 287.402402 
L 458.461723 288.061702 
L 459.681618 288.172323 
L 460.901512 287.563908 
L 463.341301 287.782938 
L 464.561195 287.562434 
L 465.781089 288.097838 
L 467.000984 287.011542 
L 468.220878 287.847835 
L 469.440772 287.282194 
L 470.660667 288.069814 
L 471.880561 288.288106 
L 473.100455 288.049902 
L 474.32035 287.532197 
L 475.540244 287.702553 
L 477.980033 287.607419 
L 479.199927 288.100788 
L 480.419821 287.311693 
L 481.639716 287.825711 
L 482.85961 287.122163 
L 484.079504 287.684116 
L 487.739187 288.013029 
L 488.959082 287.530722 
L 490.178976 287.53441 
L 492.618765 288.016716 
L 493.838659 287.576445 
L 495.058553 286.535135 
L 496.278448 288.217308 
L 498.718236 287.578658 
L 499.938131 287.195173 
L 501.158025 287.527035 
L 502.377919 287.314643 
L 503.597814 287.501223 
L 504.817708 288.023353 
L 506.037602 287.324968 
L 507.257497 288.003442 
L 508.477391 287.414202 
L 509.697285 287.702553 
L 510.91718 287.581608 
L 512.137074 288.045478 
L 513.356968 287.420101 
L 514.576863 288.305068 
L 515.796757 288.04769 
L 517.016651 287.920845 
L 518.236546 287.677479 
L 519.45644 287.873647 
L 520.676334 287.794737 
L 521.896229 287.581608 
L 523.116123 287.751226 
L 524.336017 287.59267 
L 525.555912 287.981317 
L 526.775806 287.666417 
L 529.215595 288.142086 
L 530.435489 287.523348 
L 532.875278 288.103 
L 534.095172 287.801374 
L 536.534961 288.065389 
L 537.754855 287.356679 
L 538.974749 287.338242 
L 540.194644 287.186323 
L 541.414538 287.884709 
L 542.634432 288.137661 
L 545.074221 287.77335 
L 547.51401 287.405352 
L 549.953798 287.731315 
L 551.173693 287.571283 
L 552.393587 287.765238 
L 553.613481 287.068327 
L 554.833376 288.089726 
L 556.05327 287.60152 
L 557.273164 288.05359 
L 558.493059 287.7881 
L 559.712953 287.973943 
L 560.932847 287.649455 
L 562.152742 287.746801 
L 563.372636 287.243846 
L 564.59253 287.046941 
L 565.812425 287.65978 
L 567.032319 287.51081 
L 568.252213 287.133962 
L 570.692002 287.690016 
L 571.911896 287.544734 
L 573.131791 288.058015 
L 574.351685 287.515973 
L 575.571579 287.219509 
L 576.791474 287.240896 
L 578.011368 287.794737 
L 579.231262 287.028504 
L 580.451157 287.40609 
L 581.671051 287.235734 
L 582.890945 287.639131 
L 584.11084 286.733515 
L 585.330734 287.245321 
L 586.550628 287.389128 
L 587.770523 286.284395 
L 588.990417 287.859635 
L 590.210311 287.70919 
L 591.430206 288.119962 
L 592.6501 288.052115 
L 593.869994 286.949594 
L 596.309783 288.124387 
L 597.529677 287.124375 
L 598.749572 287.424526 
L 599.969466 287.845623 
L 602.409255 287.308006 
L 603.629149 287.862585 
L 604.849043 287.572021 
L 607.288832 287.477624 
L 608.508726 287.308006 
L 609.728621 288.437812 
L 612.168409 287.732789 
L 613.388304 287.623644 
L 615.828092 287.223197 
L 617.047987 287.872909 
L 618.267881 288.333092 
L 619.487775 287.015967 
L 620.70767 287.641343 
L 621.927564 287.915682 
L 623.147458 287.650193 
L 624.367353 288.187072 
L 625.587247 287.07644 
L 626.807141 287.299894 
L 628.027036 287.897246 
L 630.466824 287.782938 
L 631.686719 287.554321 
L 634.126507 288.30433 
L 635.346402 287.570546 
L 636.566296 287.136912 
L 637.78619 287.851522 
L 639.006085 287.544734 
L 640.225979 287.923795 
L 641.445873 287.871434 
L 642.665768 287.288094 
L 643.885662 288.125124 
L 646.325451 287.618481 
L 648.765239 286.947382 
L 649.985134 287.985005 
L 651.205028 287.39429 
L 653.644817 287.848573 
L 654.864711 288.019666 
L 656.084605 287.488686 
L 657.3045 286.386904 
L 658.524394 287.723202 
L 659.744288 287.33013 
L 660.964183 287.876596 
L 662.184077 286.73499 
L 663.403971 287.158299 
L 664.623866 287.00343 
L 665.84376 286.708441 
L 667.063654 287.462875 
L 668.283549 286.834549 
L 669.503443 287.996804 
L 670.723337 287.060215 
L 671.943232 287.767451 
L 673.163126 287.327918 
L 674.38302 287.360366 
L 675.602915 286.804313 
L 676.822809 287.515973 
L 678.042703 287.85521 
L 679.262598 288.014504 
L 680.482492 287.825711 
L 681.702386 286.717291 
L 681.702386 286.717291 
" clip-path="url(#p9751808f20)" style="fill: none; stroke: #00d4ff; stroke-opacity: 0.2; stroke-width: 0.6; stroke-linecap: square"/>
   </g>
   <g id="line2d_28">
    <path d="M 72.975114 282.92177 
L 74.195008 283.609901 
L 75.414902 284.168773 
L 77.854691 284.861517 
L 79.074585 284.861517 
L 80.29448 287.733453 
L 91.273529 287.412432 
L 93.713317 287.432712 
L 99.812789 287.554321 
L 101.032683 287.490456 
L 103.472472 287.642597 
L 104.692366 287.566785 
L 107.132155 287.631608 
L 115.671415 287.404393 
L 122.990781 287.4055 
L 126.650464 287.359998 
L 127.870359 287.070097 
L 131.530042 287.171721 
L 138.849408 287.363759 
L 140.069302 287.686329 
L 141.289196 287.676078 
L 143.728985 287.486548 
L 165.687083 287.385957 
L 170.56666 287.541563 
L 176.666132 287.380204 
L 177.886026 287.41634 
L 179.105921 287.280719 
L 190.08497 287.309628 
L 192.524758 287.466783 
L 197.404336 287.651594 
L 199.844124 287.594514 
L 204.723702 287.508303 
L 207.16349 287.452993 
L 209.603279 287.366192 
L 210.823173 287.446282 
L 212.043068 287.338242 
L 216.922645 287.335661 
L 220.582328 287.292888 
L 223.022117 287.320543 
L 224.242011 287.474306 
L 238.880743 287.138387 
L 241.320532 287.229318 
L 252.299581 287.44842 
L 254.739369 287.380278 
L 271.81789 287.315307 
L 274.257679 287.306973 
L 279.137256 287.272238 
L 298.655565 287.427034 
L 301.095354 287.444364 
L 305.974931 287.466415 
L 310.854509 287.473937 
L 314.514192 287.399968 
L 316.95398 287.419511 
L 321.833558 287.448715 
L 331.592712 287.802481 
L 335.252395 287.723276 
L 340.131973 287.75897 
L 353.55081 287.622611 
L 354.770705 287.501371 
L 358.430388 287.508156 
L 360.870176 287.299156 
L 363.309965 287.342741 
L 365.749754 287.302843 
L 369.409437 287.4805 
L 371.849225 287.508229 
L 373.06912 287.583009 
L 381.60838 287.208521 
L 384.048169 287.36811 
L 386.487958 287.244509 
L 393.807324 287.499085 
L 396.247112 287.326 
L 402.346584 287.361694 
L 408.446056 287.255645 
L 409.66595 287.308375 
L 410.885844 287.22563 
L 413.325633 287.275336 
L 421.864893 287.311914 
L 423.084788 287.431901 
L 425.524576 287.437506 
L 431.624048 287.562802 
L 438.943414 287.462211 
L 448.702569 287.66745 
L 451.142357 287.72217 
L 452.362252 287.672686 
L 454.80204 287.769368 
L 464.561195 287.708969 
L 493.838659 287.670031 
L 496.278448 287.587876 
L 501.158025 287.516637 
L 502.377919 287.663467 
L 504.817708 287.558525 
L 508.477391 287.633157 
L 510.91718 287.786846 
L 517.016651 287.824826 
L 521.896229 287.788764 
L 529.215595 287.825711 
L 534.095172 287.797835 
L 536.534961 287.698055 
L 538.974749 287.783306 
L 546.294115 287.678438 
L 547.51401 287.736329 
L 549.953798 287.649898 
L 552.393587 287.637361 
L 558.493059 287.698055 
L 559.712953 287.626225 
L 560.932847 287.68537 
L 567.032319 287.465972 
L 570.692002 287.481312 
L 576.791474 287.473421 
L 579.231262 287.38721 
L 582.890945 287.199745 
L 588.990417 287.398199 
L 590.210311 287.3878 
L 591.430206 287.526887 
L 593.869994 287.518333 
L 595.089889 287.674455 
L 603.629149 287.499822 
L 606.068938 287.697391 
L 612.168409 287.668187 
L 613.388304 287.748793 
L 618.267881 287.640089 
L 620.70767 287.630797 
L 626.807141 287.68655 
L 630.466824 287.744147 
L 631.686719 287.639131 
L 634.126507 287.741123 
L 642.665768 287.658821 
L 648.765239 287.607641 
L 649.985134 287.680798 
L 654.864711 287.476518 
L 656.084605 287.56944 
L 658.524394 287.420839 
L 663.403971 287.121942 
L 664.623866 287.282932 
L 667.063654 287.260365 
L 668.283549 287.205497 
L 675.602915 287.552846 
L 676.822809 287.424895 
L 680.482492 287.44191 
L 681.702386 287.4555 
L 681.702386 287.4555 
" clip-path="url(#p9751808f20)" style="fill: none; stroke: #00d4ff; stroke-opacity: 0.9; stroke-width: 1.5; stroke-linecap: square"/>
   </g>
   <g id="line2d_29">
    <path d="M 72.975114 37.656116 
L 74.195008 44.821391 
L 75.414902 45.975535 
L 76.634797 45.867126 
L 77.854691 47.138528 
L 79.074585 47.445316 
L 80.29448 46.410643 
L 81.514374 45.975535 
L 82.734268 46.047807 
L 85.174057 45.210039 
L 86.393951 45.681284 
L 87.613846 45.162103 
L 88.83374 44.454868 
L 90.053634 45.321397 
L 91.273529 45.942349 
L 92.493423 45.282311 
L 93.713317 45.51314 
L 94.933212 45.165791 
L 96.153106 45.794854 
L 97.373 45.727744 
L 98.592895 45.193077 
L 99.812789 45.410631 
L 101.032683 44.802955 
L 102.252578 42.11487 
L 103.472472 44.541152 
L 105.912261 45.108268 
L 107.132155 45.17464 
L 108.352049 36.437812 
L 109.571944 44.934225 
L 110.791838 45.211514 
L 112.011732 44.299261 
L 113.231627 44.550739 
L 114.451521 44.242476 
L 115.671415 45.321397 
L 116.89131 44.92095 
L 118.111204 44.121531 
L 119.331098 45.823616 
L 120.550993 45.301486 
L 122.990781 46.578049 
L 124.210676 46.168015 
L 125.43057 46.555188 
L 126.650464 47.14074 
L 127.870359 46.311822 
L 129.090253 46.963009 
L 131.530042 46.760942 
L 132.749936 47.191626 
L 133.96983 46.912861 
L 135.189725 46.276423 
L 136.409619 46.991771 
L 137.629513 47.262423 
L 138.849408 39.31764 
L 140.069302 47.178351 
L 141.289196 47.337645 
L 142.509091 46.968909 
L 143.728985 46.846489 
L 144.948879 46.95121 
L 146.168774 46.293385 
L 147.388668 46.906962 
L 148.608562 46.833214 
L 149.828457 47.40328 
L 152.268245 46.596486 
L 153.48814 47.033807 
L 154.708034 47.280122 
L 155.927928 46.843539 
L 157.147823 47.154752 
L 158.367717 46.906962 
L 159.587611 47.151065 
L 160.807506 46.443829 
L 162.0274 46.789704 
L 163.247294 46.956372 
L 164.467189 46.620823 
L 165.687083 47.13779 
L 166.906977 46.472591 
L 168.126872 47.242511 
L 169.346766 46.652534 
L 170.56666 46.590586 
L 171.786555 47.168764 
L 173.006449 47.140003 
L 175.446238 46.597223 
L 176.666132 47.258736 
L 177.886026 46.800028 
L 179.105921 46.74693 
L 180.325815 46.572149 
L 181.545709 47.095754 
L 182.765604 46.94531 
L 183.985498 47.168764 
L 185.205392 47.165077 
L 186.425287 47.294872 
L 187.645181 46.661384 
L 188.865075 47.505051 
L 190.08497 47.113454 
L 191.304864 47.191626 
L 192.524758 47.119353 
L 193.744653 46.873775 
L 196.184441 47.243986 
L 197.404336 46.934248 
L 198.62423 47.779391 
L 199.844124 46.379669 
L 201.064019 47.256523 
L 202.283913 47.332483 
L 203.503807 47.282335 
L 204.723702 47.037494 
L 205.943596 47.847976 
L 208.383385 46.844276 
L 209.603279 46.555188 
L 210.823173 47.991045 
L 212.043068 46.766104 
L 214.482856 46.712269 
L 215.702751 46.971122 
L 216.922645 46.690882 
L 218.142539 46.699732 
L 219.362434 46.314772 
L 220.582328 46.843539 
L 221.802222 47.651808 
L 223.022117 47.636321 
L 224.242011 47.001358 
L 225.461905 46.864926 
L 226.6818 47.114191 
L 227.901694 46.613448 
L 229.121588 46.884837 
L 230.341483 46.651796 
L 231.561377 47.273485 
L 232.781271 47.128203 
L 234.001166 46.482178 
L 235.22106 47.669507 
L 236.440954 47.084692 
L 237.660849 47.033807 
L 238.880743 46.379669 
L 240.100637 46.682033 
L 241.320532 47.445316 
L 242.540426 46.911386 
L 243.76032 47.229974 
L 247.420003 46.69457 
L 248.639898 47.291922 
L 249.859792 47.122303 
L 251.079686 46.403268 
L 252.299581 46.263149 
L 253.519475 46.509464 
L 254.739369 47.138528 
L 255.959264 46.765367 
L 257.179158 47.050031 
L 258.399052 47.089855 
L 260.838841 46.581737 
L 262.058735 46.240287 
L 263.27863 46.380407 
L 264.498524 47.053718 
L 265.718418 46.177602 
L 266.938313 46.019046 
L 268.158207 46.789704 
L 269.378101 46.512414 
L 270.597996 46.438667 
L 271.81789 46.124504 
L 273.037784 47.561837 
L 274.257679 46.727018 
L 275.477573 46.260936 
L 276.697467 47.100917 
L 277.917362 47.103129 
L 279.137256 46.333946 
L 280.35715 46.684983 
L 281.577045 46.898849 
L 282.796939 46.247662 
L 284.016833 47.224812 
L 286.456622 46.670233 
L 287.676516 46.866401 
L 288.896411 46.561825 
L 290.116305 46.533801 
L 291.336199 46.729231 
L 292.556094 46.774217 
L 293.775988 46.474803 
L 294.995882 46.887787 
L 297.435671 47.000621 
L 298.655565 46.510939 
L 299.87546 46.504302 
L 301.095354 46.231437 
L 302.315248 47.609035 
L 303.535143 46.901799 
L 304.755037 46.62156 
L 305.974931 46.820677 
L 307.194826 46.628197 
L 308.41472 47.187938 
L 309.634614 46.422443 
L 312.074403 47.09133 
L 313.294297 46.606073 
L 314.514192 47.353869 
L 315.734086 47.118616 
L 316.95398 45.71742 
L 318.173875 46.553713 
L 320.613663 47.074368 
L 321.833558 46.578049 
L 323.053452 46.871563 
L 324.273346 46.363445 
L 325.493241 47.275697 
L 326.713135 47.378206 
L 327.933029 46.967434 
L 329.152924 46.226275 
L 330.372818 46.457841 
L 331.592712 47.151802 
L 332.812607 46.638522 
L 334.032501 46.760205 
L 335.252395 47.415817 
L 336.47229 45.8922 
L 337.692184 47.039707 
L 338.912078 45.816241 
L 340.131973 46.917286 
L 341.351867 46.943835 
L 342.571761 47.300034 
L 343.791656 46.750618 
L 345.01155 46.556663 
L 346.231444 47.426142 
L 347.451339 46.786754 
L 348.671233 46.821415 
L 349.891127 46.501352 
L 351.111022 46.87525 
L 352.330916 46.721119 
L 353.55081 46.883363 
L 354.770705 46.54855 
L 355.990599 46.753567 
L 357.210493 46.578787 
L 358.430388 45.973322 
L 359.650282 46.463741 
L 360.870176 46.054444 
L 362.090071 46.834689 
L 363.309965 46.600173 
L 364.529859 46.662121 
L 365.749754 46.478491 
L 366.969648 47.305196 
L 368.189542 46.776429 
L 369.409437 46.514627 
L 370.629331 46.979234 
L 371.849225 46.434242 
L 373.06912 46.43203 
L 374.289014 46.898849 
L 376.728803 46.74693 
L 377.948697 46.211526 
L 379.168592 47.14959 
L 380.388486 45.921699 
L 381.60838 46.752093 
L 382.828275 46.021258 
L 384.048169 46.864926 
L 385.268063 45.771993 
L 386.487958 46.622297 
L 387.707852 46.575837 
L 388.927746 45.977747 
L 390.147641 46.279373 
L 392.587429 45.892938 
L 393.807324 45.958573 
L 395.027218 46.189402 
L 396.247112 47.127466 
L 397.467007 47.040444 
L 398.686901 46.364182 
L 399.906795 46.482915 
L 401.12669 46.797816 
L 402.346584 46.404006 
L 403.566478 46.412856 
L 406.006267 46.085418 
L 407.226161 46.533063 
L 408.446056 46.143678 
L 409.66595 46.006509 
L 410.885844 46.43203 
L 412.105739 46.342058 
L 413.325633 46.477016 
L 418.20521 45.300748 
L 419.425105 45.77863 
L 421.864893 45.622286 
L 423.084788 46.140728 
L 424.304682 45.12228 
L 425.524576 45.622286 
L 426.744471 46.311822 
L 427.964365 45.805179 
L 429.184259 46.507252 
L 430.404154 45.400307 
L 431.624048 46.116392 
L 432.843942 46.552975 
L 434.063837 46.636309 
L 435.283731 46.138516 
L 436.503625 46.09943 
L 437.72352 45.929812 
L 438.943414 45.103106 
L 440.163308 46.297072 
L 441.383203 45.662109 
L 442.603097 45.642198 
L 443.822991 46.067719 
L 446.26278 45.661372 
L 447.482674 45.257975 
L 448.702569 45.844265 
L 451.142357 45.304435 
L 452.362252 46.061081 
L 453.582146 45.63556 
L 454.80204 45.947511 
L 456.021935 46.940148 
L 457.241829 45.516827 
L 458.461723 45.800754 
L 459.681618 46.29191 
L 460.901512 46.078781 
L 463.341301 46.017571 
L 464.561195 46.139991 
L 465.781089 45.502078 
L 467.000984 45.83099 
L 468.220878 45.339097 
L 469.440772 45.530102 
L 470.660667 46.013883 
L 471.880561 46.299285 
L 473.100455 45.614174 
L 474.32035 46.385569 
L 475.540244 46.68277 
L 476.760138 45.631135 
L 477.980033 45.843527 
L 479.199927 45.856802 
L 480.419821 45.377445 
L 481.639716 46.623772 
L 482.85961 46.302235 
L 484.079504 46.556663 
L 485.299399 46.065506 
L 486.519293 46.454154 
L 487.739187 46.064031 
L 488.959082 46.690882 
L 490.178976 45.773468 
L 491.39887 45.809604 
L 492.618765 46.275686 
L 493.838659 45.403257 
L 495.058553 45.600162 
L 496.278448 46.091318 
L 497.498342 46.753567 
L 498.718236 46.262411 
L 499.938131 45.996921 
L 501.158025 46.04117 
L 502.377919 45.861964 
L 503.597814 45.019771 
L 504.817708 46.033058 
L 506.037602 45.242488 
L 508.477391 45.960048 
L 509.697285 46.63336 
L 510.91718 46.603861 
L 512.137074 46.226275 
L 513.356968 46.587636 
L 514.576863 45.985122 
L 515.796757 45.751343 
L 517.016651 46.690145 
L 518.236546 45.462992 
L 520.676334 46.584686 
L 521.896229 45.606799 
L 523.116123 45.974797 
L 524.336017 45.899575 
L 525.555912 46.424655 
L 526.775806 45.63851 
L 527.9957 46.187927 
L 529.215595 45.78453 
L 530.435489 46.310347 
L 531.655383 45.092781 
L 532.875278 45.84279 
L 535.315066 45.71447 
L 536.534961 45.926124 
L 537.754855 45.768305 
L 538.974749 46.294123 
L 541.414538 46.454154 
L 542.634432 45.889251 
L 543.854327 46.858288 
L 545.074221 45.000597 
L 546.294115 45.792642 
L 547.51401 45.873764 
L 548.733904 46.604598 
L 549.953798 45.620073 
L 551.173693 45.470367 
L 552.393587 45.970372 
L 553.613481 45.428331 
L 554.833376 45.354584 
L 556.05327 45.805916 
L 557.273164 46.377457 
L 558.493059 45.855327 
L 559.712953 45.89515 
L 560.932847 45.779367 
L 563.372636 44.883339 
L 564.59253 46.218163 
L 565.812425 46.120079 
L 567.032319 45.710045 
L 568.252213 46.313297 
L 570.692002 45.446768 
L 571.911896 46.203414 
L 573.131791 45.954148 
L 574.351685 46.015358 
L 575.571579 46.458579 
L 576.791474 45.864177 
L 578.011368 45.889988 
L 579.231262 46.724806 
L 580.451157 45.777155 
L 581.671051 46.253562 
L 582.890945 45.664322 
L 584.11084 46.145891 
L 585.330734 45.795592 
L 586.550628 46.260199 
L 587.770523 45.109005 
L 588.990417 45.427593 
L 590.210311 46.488078 
L 591.430206 46.352383 
L 592.6501 46.413593 
L 593.869994 45.78158 
L 595.089889 46.454891 
L 596.309783 45.788954 
L 597.529677 45.547801 
L 598.749572 45.937924 
L 599.969466 45.594262 
L 601.18936 45.462992 
L 602.409255 46.167277 
L 603.629149 46.113442 
L 606.068938 46.523476 
L 607.288832 46.448254 
L 608.508726 45.840577 
L 609.728621 46.158428 
L 610.948515 45.944561 
L 612.168409 46.079518 
L 613.388304 45.78158 
L 614.608198 45.754293 
L 615.828092 46.642209 
L 617.047987 45.774942 
L 618.267881 45.937924 
L 619.487775 45.628186 
L 620.70767 46.670971 
L 621.927564 38.695951 
L 623.147458 46.2307 
L 624.367353 45.506503 
L 625.587247 45.927599 
L 626.807141 45.911375 
L 628.027036 45.522727 
L 630.466824 46.634835 
L 631.686719 46.463741 
L 632.906613 46.517577 
L 634.126507 45.96521 
L 635.346402 45.804441 
L 636.566296 45.923912 
L 637.78619 45.790429 
L 639.006085 45.791904 
L 640.225979 46.788966 
L 641.445873 45.946036 
L 642.665768 46.282323 
L 643.885662 46.086156 
L 645.105556 46.505777 
L 646.325451 46.516102 
L 647.545345 46.220375 
L 648.765239 45.651047 
L 649.985134 45.671696 
L 651.205028 46.375982 
L 652.424922 46.224063 
L 653.644817 45.802966 
L 654.864711 46.81994 
L 657.3045 45.450455 
L 658.524394 46.076568 
L 659.744288 46.249874 
L 660.964183 46.70047 
L 662.184077 46.847226 
L 663.403971 45.798542 
L 664.623866 46.120817 
L 665.84376 45.856802 
L 668.283549 46.117129 
L 669.503443 46.499877 
L 670.723337 46.736606 
L 671.943232 46.392944 
L 673.163126 45.873764 
L 674.38302 43.111932 
L 675.602915 46.541913 
L 676.822809 47.145902 
L 678.042703 47.07068 
L 679.262598 46.404006 
L 680.482492 46.004296 
L 681.702386 45.946036 
L 681.702386 45.946036 
" clip-path="url(#p9751808f20)" style="fill: none; stroke: #ff79c6; stroke-opacity: 0.2; stroke-width: 0.6; stroke-linecap: square"/>
   </g>
   <g id="line2d_30">
    <path d="M 72.975114 44.817335 
L 75.414902 45.161274 
L 77.854691 45.301559 
L 79.074585 45.301559 
L 80.29448 46.056952 
L 81.514374 46.142941 
L 83.954163 45.920372 
L 87.613846 45.475529 
L 91.273529 45.352814 
L 93.713317 45.355763 
L 96.153106 45.415425 
L 97.373 45.094772 
L 99.812789 44.908708 
L 102.252578 44.869106 
L 103.472472 43.933402 
L 108.352049 43.719535 
L 109.571944 43.932296 
L 112.011732 44.020128 
L 113.231627 43.921455 
L 114.451521 43.986352 
L 115.671415 44.872719 
L 118.111204 45.114389 
L 120.550993 45.501709 
L 121.770887 45.791536 
L 124.210676 46.094784 
L 125.43057 46.368165 
L 132.749936 46.866696 
L 133.96983 46.084386 
L 136.409619 46.208502 
L 140.069302 46.204372 
L 141.289196 46.142425 
L 143.728985 46.189623 
L 144.948879 46.203709 
L 146.168774 46.971933 
L 148.608562 46.883363 
L 155.927928 46.981372 
L 158.367717 46.915664 
L 164.467189 46.837418 
L 166.906977 46.80755 
L 169.346766 46.889926 
L 173.006449 46.884026 
L 179.105921 46.924218 
L 185.205392 47.026875 
L 190.08497 47.118616 
L 208.383385 47.174738 
L 215.702751 46.82643 
L 216.922645 46.936092 
L 220.582328 46.938673 
L 224.242011 46.962493 
L 226.6818 47.053571 
L 227.901694 47.082037 
L 229.121588 46.965074 
L 247.420003 46.931888 
L 248.639898 46.838303 
L 254.739369 46.85202 
L 258.399052 46.690514 
L 259.618947 46.769571 
L 265.718418 46.507989 
L 266.938313 46.431809 
L 269.378101 46.578492 
L 271.81789 46.571264 
L 274.257679 46.695307 
L 277.917362 46.704378 
L 279.137256 46.814409 
L 281.577045 46.751134 
L 282.796939 46.81168 
L 286.456622 46.740367 
L 294.995882 46.692062 
L 296.215777 46.659024 
L 298.655565 46.783804 
L 305.974931 46.763523 
L 309.634614 46.834173 
L 310.854509 46.855855 
L 313.294297 46.738744 
L 318.173875 46.774585 
L 319.393769 46.701797 
L 321.833558 46.771193 
L 325.493241 46.797373 
L 330.372818 46.863525 
L 336.47229 46.703346 
L 337.692184 46.787565 
L 340.131973 46.739261 
L 341.351867 46.805854 
L 342.571761 46.742948 
L 343.791656 46.835869 
L 345.01155 46.782034 
L 346.231444 46.887935 
L 352.330916 46.78963 
L 353.55081 46.644348 
L 360.870176 46.494789 
L 363.309965 46.572739 
L 366.969648 46.663965 
L 371.849225 46.741915 
L 385.268063 46.393681 
L 387.707852 46.288075 
L 390.147641 46.225538 
L 403.566478 46.454301 
L 406.006267 46.357693 
L 410.885844 46.240361 
L 416.985316 45.92723 
L 419.425105 45.776122 
L 421.864893 45.704219 
L 423.084788 45.691829 
L 425.524576 45.80422 
L 427.964365 45.920151 
L 431.624048 46.119047 
L 432.843942 46.149799 
L 434.063837 46.028928 
L 435.283731 46.078117 
L 437.72352 46.017792 
L 440.163308 45.947142 
L 443.822991 45.736078 
L 448.702569 45.699204 
L 462.121406 46.016022 
L 463.341301 45.855917 
L 475.540244 45.923469 
L 477.980033 46.061671 
L 487.739187 46.2616 
L 490.178976 46.069341 
L 491.39887 46.022807 
L 493.838659 46.072439 
L 497.498342 46.009606 
L 499.938131 45.90636 
L 506.037602 45.89928 
L 510.91718 46.062335 
L 515.796757 46.260936 
L 519.45644 46.062704 
L 535.315066 45.891463 
L 538.974749 46.092867 
L 541.414538 46.011523 
L 546.294115 45.998101 
L 549.953798 45.797362 
L 551.173693 45.692124 
L 552.393587 45.82981 
L 556.05327 45.755694 
L 559.712953 45.687257 
L 563.372636 45.842716 
L 567.032319 45.787258 
L 569.472108 45.878778 
L 570.692002 46.036302 
L 573.131791 45.977895 
L 574.351685 46.079371 
L 576.791474 46.058795 
L 581.671051 46.083427 
L 584.11084 45.904811 
L 587.770523 45.991022 
L 588.990417 45.943823 
L 590.210311 46.02288 
L 595.089889 45.978706 
L 607.288832 46.100684 
L 610.948515 46.144121 
L 615.828092 46.037261 
L 617.047987 45.291013 
L 620.70767 45.276928 
L 621.927564 45.292636 
L 623.147458 45.180688 
L 628.027036 45.345586 
L 629.24693 46.072512 
L 631.686719 46.071627 
L 634.126507 46.045963 
L 635.346402 46.172587 
L 645.105556 46.146038 
L 646.325451 46.204446 
L 648.765239 46.133649 
L 651.205028 46.196113 
L 653.644817 46.046627 
L 656.084605 46.154519 
L 657.3045 46.272072 
L 662.184077 46.12384 
L 664.623866 46.223178 
L 667.063654 46.303488 
L 668.283549 46.220818 
L 669.503443 45.847288 
L 675.602915 46.178192 
L 680.482492 46.032109 
L 681.702386 46.518806 
L 681.702386 46.518806 
" clip-path="url(#p9751808f20)" style="fill: none; stroke: #ff79c6; stroke-opacity: 0.9; stroke-width: 1.5; stroke-linecap: square"/>
   </g>
   <g id="line2d_31">
    <path d="M 72.975114 255.308369 
L 74.195008 266.217051 
L 75.414902 267.047444 
L 76.634797 266.578412 
L 77.854691 267.015733 
L 80.29448 267.042282 
L 81.514374 266.198614 
L 82.734268 266.196402 
L 83.954163 266.353483 
L 85.174057 267.012045 
L 86.393951 266.478853 
L 87.613846 266.360858 
L 88.83374 265.713358 
L 90.053634 266.073244 
L 91.273529 266.241387 
L 92.493423 266.075456 
L 93.713317 265.281199 
L 94.933212 266.5703 
L 96.153106 263.149168 
L 97.373 265.309223 
L 98.592895 265.031934 
L 99.812789 265.826928 
L 101.032683 265.865277 
L 104.692366 266.691983 
L 105.912261 266.924286 
L 107.132155 267.55335 
L 108.352049 265.886664 
L 109.571944 266.096106 
L 110.791838 265.128543 
L 112.011732 265.467042 
L 113.231627 265.943449 
L 114.451521 265.781943 
L 115.671415 264.931638 
L 116.89131 266.146991 
L 118.111204 265.011285 
L 119.331098 265.132967 
L 120.550993 266.358645 
L 121.770887 266.703045 
L 122.990781 266.373395 
L 124.210676 265.157304 
L 125.43057 266.599799 
L 126.650464 265.710408 
L 127.870359 266.599061 
L 129.090253 266.034895 
L 130.310147 266.750243 
L 131.530042 265.777518 
L 132.749936 265.882239 
L 133.96983 266.118967 
L 135.189725 264.913201 
L 136.409619 265.302586 
L 137.629513 265.026771 
L 138.849408 265.599787 
L 140.069302 265.639611 
L 141.289196 266.75983 
L 142.509091 266.562188 
L 143.728985 264.955237 
L 144.948879 266.247287 
L 146.168774 266.058494 
L 147.388668 266.061444 
L 148.608562 267.030482 
L 149.828457 265.931649 
L 151.048351 265.83799 
L 152.268245 264.144018 
L 153.48814 266.278261 
L 154.708034 265.297424 
L 157.147823 265.847578 
L 158.367717 264.891077 
L 159.587611 265.540789 
L 160.807506 265.248013 
L 163.247294 265.801854 
L 164.467189 266.480328 
L 165.687083 266.486966 
L 166.906977 266.96411 
L 168.126872 266.187552 
L 169.346766 265.991385 
L 170.56666 265.413207 
L 171.786555 265.32471 
L 173.006449 265.72737 
L 174.226343 265.2694 
L 175.446238 265.653622 
L 176.666132 264.607888 
L 177.886026 265.984747 
L 179.105921 265.494329 
L 180.325815 265.20229 
L 181.545709 266.160266 
L 182.765604 265.717783 
L 183.985498 265.519403 
L 185.205392 265.500228 
L 186.425287 265.031196 
L 187.645181 265.549639 
L 190.08497 265.605687 
L 191.304864 264.981048 
L 192.524758 265.194178 
L 193.744653 264.453756 
L 194.964547 268.164714 
L 196.184441 266.082831 
L 197.404336 265.750969 
L 198.62423 266.290061 
L 199.844124 265.902888 
L 201.064019 265.12043 
L 202.283913 266.261299 
L 204.723702 264.946387 
L 205.943596 264.495792 
L 207.16349 266.175015 
L 208.383385 265.827666 
L 209.603279 265.098306 
L 210.823173 265.618224 
L 212.043068 265.200815 
L 213.262962 266.764992 
L 214.482856 265.880026 
L 216.922645 266.199352 
L 218.142539 265.133705 
L 219.362434 265.509815 
L 220.582328 264.902876 
L 221.802222 266.502452 
L 223.022117 266.346108 
L 224.242011 265.621174 
L 225.461905 266.018671 
L 226.6818 265.877076 
L 227.901694 265.943449 
L 229.121588 265.045208 
L 230.341483 265.081344 
L 231.561377 266.691245 
L 232.781271 265.808492 
L 234.001166 266.126342 
L 235.22106 265.565126 
L 236.440954 266.031208 
L 237.660849 265.666897 
L 238.880743 264.918363 
L 240.100637 265.793005 
L 241.320532 265.901413 
L 244.980215 265.200815 
L 246.200109 265.528252 
L 247.420003 265.454505 
L 248.639898 265.058483 
L 249.859792 265.826928 
L 251.079686 266.345371 
L 252.299581 265.166154 
L 253.519475 266.068819 
L 254.739369 266.287111 
L 257.179158 264.789306 
L 258.399052 266.49729 
L 259.618947 266.029733 
L 260.838841 265.97811 
L 262.058735 265.182378 
L 263.27863 265.125593 
L 264.498524 265.888876 
L 265.718418 265.871177 
L 266.938313 265.97811 
L 268.158207 265.07102 
L 270.597996 265.867489 
L 273.037784 265.494329 
L 274.257679 265.64846 
L 275.477573 265.165416 
L 276.697467 267.366032 
L 277.917362 265.585775 
L 279.137256 264.859365 
L 280.35715 265.856427 
L 281.577045 266.210414 
L 282.796939 264.746532 
L 284.016833 266.152891 
L 285.236728 266.460417 
L 286.456622 265.203027 
L 287.676516 264.781931 
L 288.896411 265.77383 
L 290.116305 265.897726 
L 291.336199 265.259075 
L 292.556094 265.367483 
L 293.775988 264.908776 
L 294.995882 264.828392 
L 296.215777 265.341672 
L 298.655565 265.268662 
L 299.87546 265.707458 
L 301.095354 265.253913 
L 302.315248 266.351271 
L 303.535143 265.454505 
L 304.755037 266.526052 
L 305.974931 265.234739 
L 307.194826 266.535639 
L 308.41472 266.508352 
L 309.634614 265.501703 
L 310.854509 265.577663 
L 312.074403 265.533415 
L 313.294297 265.232526 
L 314.514192 266.198614 
L 315.734086 266.302598 
L 316.95398 269.725204 
L 318.173875 266.09758 
L 319.393769 265.2517 
L 320.613663 266.868976 
L 321.833558 265.337247 
L 323.053452 265.821029 
L 324.273346 265.553326 
L 325.493241 266.139616 
L 326.713135 265.113793 
L 327.933029 265.758343 
L 329.152924 265.750969 
L 330.372818 266.469266 
L 332.812607 265.992859 
L 334.032501 266.234013 
L 335.252395 265.77678 
L 336.47229 266.943461 
L 337.692184 265.555539 
L 338.912078 265.024559 
L 340.131973 267.029745 
L 341.351867 266.125604 
L 342.571761 267.10128 
L 343.791656 265.800379 
L 345.01155 266.366758 
L 346.231444 266.69862 
L 347.451339 266.084306 
L 348.671233 265.723682 
L 349.891127 266.023096 
L 351.111022 265.86159 
L 352.330916 265.930174 
L 353.55081 265.501703 
L 354.770705 265.495804 
L 357.210493 265.789317 
L 358.430388 265.912475 
L 359.650282 265.177216 
L 362.090071 265.391083 
L 363.309965 265.804804 
L 364.529859 265.769406 
L 365.749754 265.07397 
L 366.969648 265.503178 
L 368.189542 266.086518 
L 369.409437 265.255388 
L 370.629331 265.408782 
L 371.849225 264.88149 
L 373.06912 265.680171 
L 374.289014 266.067344 
L 375.508908 265.366009 
L 376.728803 266.187552 
L 377.948697 265.449343 
L 379.168592 265.742119 
L 380.388486 265.19344 
L 381.60838 265.725895 
L 382.828275 266.467054 
L 384.048169 264.800368 
L 385.268063 266.011296 
L 386.487958 265.954511 
L 387.707852 266.305548 
L 390.147641 265.672797 
L 391.367535 266.096843 
L 392.587429 266.206726 
L 393.807324 265.562176 
L 395.027218 266.370445 
L 397.467007 265.39477 
L 398.686901 265.616011 
L 399.906795 265.01276 
L 401.12669 265.993597 
L 402.346584 265.673534 
L 403.566478 266.425018 
L 404.786373 266.006871 
L 406.006267 265.418369 
L 407.226161 266.565875 
L 408.446056 265.585038 
L 409.66595 266.125604 
L 410.885844 265.930174 
L 412.105739 265.380758 
L 413.325633 265.717783 
L 414.545527 265.874127 
L 415.765422 265.14403 
L 416.985316 265.728107 
L 418.20521 265.216302 
L 419.425105 266.915437 
L 420.644999 265.498016 
L 421.864893 265.603474 
L 423.084788 265.986222 
L 424.304682 265.442706 
L 425.524576 265.392557 
L 426.744471 266.320297 
L 427.964365 265.722207 
L 429.184259 266.919862 
L 430.404154 265.736957 
L 432.843942 265.790055 
L 434.063837 265.01276 
L 435.283731 265.2635 
L 436.503625 265.719257 
L 437.72352 265.527515 
L 438.943414 268.913248 
L 440.163308 266.029733 
L 441.383203 265.901413 
L 442.603097 266.594636 
L 443.822991 265.968523 
L 445.042886 265.565126 
L 448.702569 266.208939 
L 449.922463 265.323235 
L 451.142357 264.837979 
L 452.362252 265.308486 
L 453.582146 266.108643 
L 454.80204 265.140342 
L 456.021935 266.001709 
L 457.241829 265.771618 
L 458.461723 265.961148 
L 459.681618 267.088743 
L 460.901512 266.200827 
L 462.121406 267.15659 
L 463.341301 265.953773 
L 464.561195 265.655097 
L 465.781089 264.908039 
L 467.000984 266.31366 
L 468.220878 266.258349 
L 470.660667 265.820291 
L 471.880561 265.408782 
L 473.100455 265.312173 
L 474.32035 266.087993 
L 475.540244 264.751695 
L 476.760138 266.727381 
L 479.199927 264.920576 
L 480.419821 264.882227 
L 481.639716 266.232538 
L 482.85961 265.767193 
L 484.079504 266.874138 
L 485.299399 265.970735 
L 486.519293 266.636672 
L 487.739187 265.509078 
L 490.178976 266.465579 
L 491.39887 266.149204 
L 492.618765 266.18239 
L 493.838659 265.287099 
L 495.058553 266.095368 
L 496.278448 266.599799 
L 497.498342 265.911 
L 498.718236 266.812928 
L 499.938131 265.662472 
L 501.158025 265.335772 
L 502.377919 265.319548 
L 503.597814 264.580601 
L 504.817708 266.36897 
L 507.257497 265.245063 
L 508.477391 266.178702 
L 509.697285 266.138879 
L 510.91718 265.708195 
L 512.137074 265.691234 
L 513.356968 265.231051 
L 514.576863 265.384445 
L 515.796757 265.383708 
L 517.016651 265.966311 
L 518.236546 265.606424 
L 519.45644 265.983272 
L 520.676334 265.757606 
L 521.896229 265.717045 
L 523.116123 266.057757 
L 524.336017 265.412469 
L 525.555912 265.872652 
L 526.775806 265.062908 
L 527.9957 265.880764 
L 529.215595 265.31586 
L 530.435489 265.618961 
L 531.655383 265.732532 
L 532.875278 266.141091 
L 534.095172 264.871902 
L 535.315066 265.062908 
L 536.534961 265.039309 
L 537.754855 264.07912 
L 538.974749 267.385944 
L 540.194644 265.38002 
L 541.414538 265.725895 
L 542.634432 265.572501 
L 543.854327 266.124867 
L 545.074221 266.253187 
L 546.294115 266.145516 
L 547.51401 265.052583 
L 548.733904 266.350533 
L 549.953798 265.239901 
L 551.173693 265.158779 
L 552.393587 265.857902 
L 553.613481 266.344634 
L 554.833376 265.424269 
L 556.05327 264.899189 
L 557.273164 265.441231 
L 558.493059 265.669847 
L 559.712953 265.139605 
L 560.932847 269.106465 
L 562.152742 264.823967 
L 563.372636 265.573238 
L 564.59253 265.965573 
L 565.812425 266.222951 
L 567.032319 265.97811 
L 568.252213 266.386669 
L 569.472108 265.155829 
L 570.692002 266.606436 
L 571.911896 265.918375 
L 573.131791 265.786367 
L 574.351685 265.335035 
L 575.571579 265.958198 
L 576.791474 265.219252 
L 578.011368 264.656561 
L 579.231262 267.290072 
L 580.451157 265.582825 
L 581.671051 266.57325 
L 582.890945 266.580624 
L 584.11084 265.444181 
L 585.330734 264.965561 
L 586.550628 265.624124 
L 587.770523 264.778244 
L 588.990417 265.477367 
L 590.210311 265.393295 
L 591.430206 266.51499 
L 592.6501 264.778981 
L 593.869994 265.64256 
L 595.089889 264.699334 
L 597.529677 265.863064 
L 598.749572 265.300374 
L 599.969466 265.14108 
L 601.18936 265.438281 
L 602.409255 265.379283 
L 603.629149 264.697859 
L 604.849043 264.857153 
L 606.068938 265.839465 
L 607.288832 267.163965 
L 608.508726 265.062908 
L 609.728621 265.781943 
L 610.948515 266.11233 
L 612.168409 265.492854 
L 613.388304 265.943449 
L 614.608198 265.899201 
L 615.828092 266.801129 
L 617.047987 265.745069 
L 618.267881 265.179428 
L 619.487775 265.250963 
L 620.70767 265.571763 
L 621.927564 265.029721 
L 623.147458 265.104206 
L 624.367353 265.510553 
L 625.587247 265.099781 
L 626.807141 265.591675 
L 628.027036 265.52899 
L 629.24693 266.94936 
L 630.466824 265.767931 
L 631.686719 265.021609 
L 632.906613 265.628548 
L 634.126507 265.505391 
L 635.346402 265.801117 
L 636.566296 266.281948 
L 637.78619 266.057757 
L 639.006085 265.538577 
L 640.225979 265.599787 
L 641.445873 266.284898 
L 642.665768 265.335772 
L 645.105556 266.402156 
L 646.325451 265.390345 
L 647.545345 265.708933 
L 648.765239 265.450818 
L 649.985134 265.373383 
L 651.205028 264.595351 
L 653.644817 265.705983 
L 654.864711 265.01276 
L 656.084605 265.361584 
L 657.3045 264.673523 
L 658.524394 266.051857 
L 659.744288 264.405083 
L 660.964183 265.483267 
L 662.184077 265.696396 
L 663.403971 266.255399 
L 664.623866 265.945661 
L 665.84376 265.307011 
L 667.063654 265.5902 
L 668.283549 266.214101 
L 669.503443 267.250986 
L 670.723337 265.674272 
L 671.943232 265.044471 
L 673.163126 264.555527 
L 674.38302 265.983272 
L 675.602915 265.567338 
L 676.822809 265.020134 
L 678.042703 266.123392 
L 679.262598 265.140342 
L 680.482492 265.500966 
L 681.702386 265.378546 
L 681.702386 265.378546 
" clip-path="url(#p9751808f20)" style="fill: none; stroke: #f1fa8c; stroke-opacity: 0.2; stroke-width: 0.6; stroke-linecap: square"/>
   </g>
   <g id="line2d_32">
    <path d="M 72.975114 264.862438 
L 74.195008 265.173844 
L 77.854691 265.496541 
L 79.074585 265.496541 
L 80.29448 266.666909 
L 82.734268 266.62443 
L 90.053634 266.216018 
L 91.273529 265.895587 
L 93.713317 265.580613 
L 96.153106 265.542412 
L 99.812789 265.627295 
L 104.692366 266.242346 
L 109.571944 266.185561 
L 114.451521 265.552663 
L 124.210676 265.96808 
L 126.650464 266.206431 
L 131.530042 265.968892 
L 132.749936 265.811589 
L 142.509091 265.821324 
L 144.948879 266.084601 
L 146.168774 266.108421 
L 148.608562 265.910705 
L 149.828457 265.784229 
L 152.268245 265.806869 
L 157.147823 265.413797 
L 158.367717 265.410183 
L 159.587611 265.643814 
L 160.807506 265.664685 
L 163.247294 265.891973 
L 170.56666 265.949865 
L 171.786555 265.762621 
L 174.226343 265.565421 
L 175.446238 265.466895 
L 185.205392 265.539093 
L 188.865075 265.316303 
L 190.08497 265.560996 
L 198.62423 265.876413 
L 201.064019 265.855837 
L 202.283913 265.656867 
L 205.943596 265.498901 
L 207.16349 265.428694 
L 208.383385 265.59315 
L 210.823173 265.604433 
L 213.262962 265.793521 
L 215.702751 265.634522 
L 218.142539 265.847725 
L 219.362434 265.889761 
L 221.802222 265.814834 
L 226.6818 265.802961 
L 227.901694 265.893522 
L 235.22106 265.672723 
L 237.660849 265.815055 
L 240.100637 265.632826 
L 244.980215 265.480685 
L 246.200109 265.623386 
L 248.639898 265.577442 
L 251.079686 265.651484 
L 252.299581 265.610333 
L 255.959264 265.856722 
L 259.618947 265.742562 
L 270.597996 265.608637 
L 271.81789 265.756352 
L 275.477573 265.694478 
L 276.697467 265.769996 
L 277.917362 265.6579 
L 281.577045 265.76063 
L 282.796939 265.722281 
L 284.016833 265.563061 
L 287.676516 265.585333 
L 288.896411 265.455169 
L 291.336199 265.382233 
L 292.556094 265.269842 
L 298.655565 265.381864 
L 303.535143 265.81771 
L 310.854509 265.91513 
L 312.074403 266.235045 
L 313.294297 266.321329 
L 314.514192 266.192936 
L 320.613663 266.329589 
L 323.053452 266.166682 
L 324.273346 265.769258 
L 342.571761 266.273025 
L 343.791656 266.151047 
L 346.231444 266.281506 
L 351.111022 265.936517 
L 360.870176 265.536881 
L 376.728803 265.570214 
L 377.948697 265.676042 
L 381.60838 265.689759 
L 382.828275 265.783713 
L 386.487958 265.817046 
L 387.707852 265.918375 
L 390.147641 265.892342 
L 391.367535 266.00075 
L 397.467007 265.781131 
L 401.12669 265.779583 
L 409.66595 265.902962 
L 412.105739 265.746986 
L 420.644999 265.680098 
L 427.964365 265.862991 
L 431.624048 265.759302 
L 432.843942 265.772798 
L 434.063837 266.032093 
L 435.283731 266.062846 
L 436.503625 265.961001 
L 438.943414 266.072064 
L 441.383203 266.127964 
L 443.822991 266.259824 
L 445.042886 266.239396 
L 446.26278 265.831869 
L 451.142357 265.638357 
L 456.021935 265.774273 
L 458.461723 266.069188 
L 459.681618 266.103849 
L 460.901512 265.983789 
L 463.341301 266.126784 
L 465.781089 266.143304 
L 468.220878 265.886442 
L 470.660667 265.659375 
L 473.100455 265.862032 
L 475.540244 265.585111 
L 479.199927 265.741824 
L 482.85961 265.938287 
L 484.079504 265.866014 
L 486.519293 266.049202 
L 487.739187 266.179219 
L 488.959082 266.084675 
L 492.618765 266.084085 
L 496.278448 266.050161 
L 499.938131 265.797356 
L 501.158025 265.848979 
L 503.597814 265.721839 
L 504.817708 265.744627 
L 506.037602 265.634153 
L 529.215595 265.59669 
L 532.875278 265.280536 
L 534.095172 265.512839 
L 536.534961 265.503768 
L 540.194644 265.549565 
L 541.414538 265.676927 
L 542.634432 265.675894 
L 545.074221 265.923095 
L 546.294115 265.700378 
L 549.953798 265.795217 
L 552.393587 265.591454 
L 554.833376 265.552589 
L 556.05327 265.828182 
L 558.493059 265.828035 
L 562.152742 265.882017 
L 563.372636 266.030766 
L 564.59253 266.002225 
L 567.032319 266.173761 
L 568.252213 265.841752 
L 570.692002 265.931354 
L 573.131791 265.700083 
L 574.351685 265.831279 
L 575.571579 265.750895 
L 576.791474 265.892637 
L 579.231262 265.842637 
L 582.890945 265.671469 
L 586.550628 265.693446 
L 588.990417 265.519993 
L 590.210311 265.331864 
L 593.869994 265.376038 
L 597.529677 265.407012 
L 598.749572 265.225299 
L 601.18936 265.252807 
L 602.409255 265.49927 
L 604.849043 265.466231 
L 612.168409 265.984231 
L 613.388304 265.918227 
L 614.608198 265.726927 
L 615.828092 265.777813 
L 623.147458 265.361215 
L 625.587247 265.540494 
L 629.24693 265.570804 
L 635.346402 265.815203 
L 637.78619 265.705541 
L 641.445873 265.858713 
L 643.885662 265.766382 
L 656.084605 265.184222 
L 657.3045 265.216523 
L 659.744288 265.459151 
L 662.184077 265.476998 
L 663.403971 265.56225 
L 664.623866 265.819996 
L 668.283549 265.753402 
L 670.723337 265.713284 
L 671.943232 265.620731 
L 673.163126 265.702369 
L 675.602915 265.58607 
L 676.822809 265.398826 
L 679.262598 265.40869 
L 680.482492 265.53057 
L 681.702386 265.45512 
L 681.702386 265.45512 
" clip-path="url(#p9751808f20)" style="fill: none; stroke: #f1fa8c; stroke-opacity: 0.9; stroke-width: 1.5; stroke-linecap: square"/>
   </g>
   <g id="patch_3">
    <path d="M 42.53875 301.037812 
L 42.53875 23.837812 
" style="fill: none; stroke: #21262d; stroke-width: 0.8; stroke-linejoin: miter; stroke-linecap: square"/>
   </g>
   <g id="patch_4">
    <path d="M 712.13875 301.037812 
L 712.13875 23.837812 
" style="fill: none; stroke: #21262d; stroke-width: 0.8; stroke-linejoin: miter; stroke-linecap: square"/>
   </g>
   <g id="patch_5">
    <path d="M 42.53875 301.037813 
L 712.13875 301.037813 
" style="fill: none; stroke: #21262d; stroke-width: 0.8; stroke-linejoin: miter; stroke-linecap: square"/>
   </g>
   <g id="patch_6">
    <path d="M 42.53875 23.837812 
L 712.13875 23.837812 
" style="fill: none; stroke: #21262d; stroke-width: 0.8; stroke-linejoin: miter; stroke-linecap: square"/>
   </g>
   <g id="text_16">
    <!-- Per-Step Training Time -->
    <g style="fill: #c9d1d9" transform="translate(286.909688 17.837812) scale(0.14 -0.14)">
     <defs>
      <path id="DejaVuSans-Bold-50" d="M 588 4666 
L 2584 4666 
Q 3475 4666 3951 4270 
Q 4428 3875 4428 3144 
Q 4428 2409 3951 2014 
Q 3475 1619 2584 1619 
L 1791 1619 
L 1791 0 
L 588 0 
L 588 4666 
z
M 1791 3794 
L 1791 2491 
L 2456 2491 
Q 2806 2491 2997 2661 
Q 3188 2831 3188 3144 
Q 3188 3456 2997 3625 
Q 2806 3794 2456 3794 
L 1791 3794 
z
" transform="scale(0.015625)"/>
      <path id="DejaVuSans-Bold-65" d="M 4031 1759 
L 4031 1441 
L 1416 1441 
Q 1456 1047 1700 850 
Q 1944 653 2381 653 
Q 2734 653 3104 758 
Q 3475 863 3866 1075 
L 3866 213 
Q 3469 63 3072 -14 
Q 2675 -91 2278 -91 
Q 1328 -91 801 392 
Q 275 875 275 1747 
Q 275 2603 792 3093 
Q 1309 3584 2216 3584 
Q 3041 3584 3536 3087 
Q 4031 2591 4031 1759 
z
M 2881 2131 
Q 2881 2450 2695 2645 
Q 2509 2841 2209 2841 
Q 1884 2841 1681 2658 
Q 1478 2475 1428 2131 
L 2881 2131 
z
" transform="scale(0.015625)"/>
      <path id="DejaVuSans-Bold-72" d="M 3138 2547 
Q 2991 2616 2845 2648 
Q 2700 2681 2553 2681 
Q 2122 2681 1889 2404 
Q 1656 2128 1656 1613 
L 1656 0 
L 538 0 
L 538 3500 
L 1656 3500 
L 1656 2925 
Q 1872 3269 2151 3426 
Q 2431 3584 2822 3584 
Q 2878 3584 2943 3579 
Q 3009 3575 3134 3559 
L 3138 2547 
z
" transform="scale(0.015625)"/>
      <path id="DejaVuSans-Bold-2d" d="M 347 2297 
L 2309 2297 
L 2309 1388 
L 347 1388 
L 347 2297 
z
" transform="scale(0.015625)"/>
      <path id="DejaVuSans-Bold-53" d="M 3834 4519 
L 3834 3531 
Q 3450 3703 3084 3790 
Q 2719 3878 2394 3878 
Q 1963 3878 1756 3759 
Q 1550 3641 1550 3391 
Q 1550 3203 1689 3098 
Q 1828 2994 2194 2919 
L 2706 2816 
Q 3484 2659 3812 2340 
Q 4141 2022 4141 1434 
Q 4141 663 3683 286 
Q 3225 -91 2284 -91 
Q 1841 -91 1394 -6 
Q 947 78 500 244 
L 500 1259 
Q 947 1022 1364 901 
Q 1781 781 2169 781 
Q 2563 781 2772 912 
Q 2981 1044 2981 1288 
Q 2981 1506 2839 1625 
Q 2697 1744 2272 1838 
L 1806 1941 
Q 1106 2091 782 2419 
Q 459 2747 459 3303 
Q 459 4000 909 4375 
Q 1359 4750 2203 4750 
Q 2588 4750 2994 4692 
Q 3400 4634 3834 4519 
z
" transform="scale(0.015625)"/>
      <path id="DejaVuSans-Bold-74" d="M 1759 4494 
L 1759 3500 
L 2913 3500 
L 2913 2700 
L 1759 2700 
L 1759 1216 
Q 1759 972 1856 886 
Q 1953 800 2241 800 
L 2816 800 
L 2816 0 
L 1856 0 
Q 1194 0 917 276 
Q 641 553 641 1216 
L 641 2700 
L 84 2700 
L 84 3500 
L 641 3500 
L 641 4494 
L 1759 4494 
z
" transform="scale(0.015625)"/>
      <path id="DejaVuSans-Bold-70" d="M 1656 506 
L 1656 -1331 
L 538 -1331 
L 538 3500 
L 1656 3500 
L 1656 2988 
Q 1888 3294 2169 3439 
Q 2450 3584 2816 3584 
Q 3463 3584 3878 3070 
Q 4294 2556 4294 1747 
Q 4294 938 3878 423 
Q 3463 -91 2816 -91 
Q 2450 -91 2169 54 
Q 1888 200 1656 506 
z
M 2400 2772 
Q 2041 2772 1848 2508 
Q 1656 2244 1656 1747 
Q 1656 1250 1848 986 
Q 2041 722 2400 722 
Q 2759 722 2948 984 
Q 3138 1247 3138 1747 
Q 3138 2247 2948 2509 
Q 2759 2772 2400 2772 
z
" transform="scale(0.015625)"/>
      <path id="DejaVuSans-Bold-20" transform="scale(0.015625)"/>
      <path id="DejaVuSans-Bold-54" d="M 31 4666 
L 4331 4666 
L 4331 3756 
L 2784 3756 
L 2784 0 
L 1581 0 
L 1581 3756 
L 31 3756 
L 31 4666 
z
" transform="scale(0.015625)"/>
      <path id="DejaVuSans-Bold-61" d="M 2106 1575 
Q 1756 1575 1579 1456 
Q 1403 1338 1403 1106 
Q 1403 894 1545 773 
Q 1688 653 1941 653 
Q 2256 653 2472 879 
Q 2688 1106 2688 1447 
L 2688 1575 
L 2106 1575 
z
M 3816 1997 
L 3816 0 
L 2688 0 
L 2688 519 
Q 2463 200 2181 54 
Q 1900 -91 1497 -91 
Q 953 -91 614 226 
Q 275 544 275 1050 
Q 275 1666 698 1953 
Q 1122 2241 2028 2241 
L 2688 2241 
L 2688 2328 
Q 2688 2594 2478 2717 
Q 2269 2841 1825 2841 
Q 1466 2841 1156 2769 
Q 847 2697 581 2553 
L 581 3406 
Q 941 3494 1303 3539 
Q 1666 3584 2028 3584 
Q 2975 3584 3395 3211 
Q 3816 2838 3816 1997 
z
" transform="scale(0.015625)"/>
      <path id="DejaVuSans-Bold-69" d="M 538 3500 
L 1656 3500 
L 1656 0 
L 538 0 
L 538 3500 
z
M 538 4863 
L 1656 4863 
L 1656 3950 
L 538 3950 
L 538 4863 
z
" transform="scale(0.015625)"/>
      <path id="DejaVuSans-Bold-6e" d="M 4056 2131 
L 4056 0 
L 2931 0 
L 2931 347 
L 2931 1631 
Q 2931 2084 2911 2256 
Q 2891 2428 2841 2509 
Q 2775 2619 2662 2680 
Q 2550 2741 2406 2741 
Q 2056 2741 1856 2470 
Q 1656 2200 1656 1722 
L 1656 0 
L 538 0 
L 538 3500 
L 1656 3500 
L 1656 2988 
Q 1909 3294 2193 3439 
Q 2478 3584 2822 3584 
Q 3428 3584 3742 3212 
Q 4056 2841 4056 2131 
z
" transform="scale(0.015625)"/>
      <path id="DejaVuSans-Bold-67" d="M 2919 594 
Q 2688 288 2409 144 
Q 2131 0 1766 0 
Q 1125 0 706 504 
Q 288 1009 288 1791 
Q 288 2575 706 3076 
Q 1125 3578 1766 3578 
Q 2131 3578 2409 3434 
Q 2688 3291 2919 2981 
L 2919 3500 
L 4044 3500 
L 4044 353 
Q 4044 -491 3511 -936 
Q 2978 -1381 1966 -1381 
Q 1638 -1381 1331 -1331 
Q 1025 -1281 716 -1178 
L 716 -306 
Q 1009 -475 1290 -558 
Q 1572 -641 1856 -641 
Q 2406 -641 2662 -400 
Q 2919 -159 2919 353 
L 2919 594 
z
M 2181 2772 
Q 1834 2772 1640 2515 
Q 1447 2259 1447 1791 
Q 1447 1309 1634 1061 
Q 1822 813 2181 813 
Q 2531 813 2725 1069 
Q 2919 1325 2919 1791 
Q 2919 2259 2725 2515 
Q 2531 2772 2181 2772 
z
" transform="scale(0.015625)"/>
      <path id="DejaVuSans-Bold-6d" d="M 3781 2919 
Q 3994 3244 4286 3414 
Q 4578 3584 4928 3584 
Q 5531 3584 5847 3212 
Q 6163 2841 6163 2131 
L 6163 0 
L 5038 0 
L 5038 1825 
Q 5041 1866 5042 1909 
Q 5044 1953 5044 2034 
Q 5044 2406 4934 2573 
Q 4825 2741 4581 2741 
Q 4263 2741 4089 2478 
Q 3916 2216 3909 1719 
L 3909 0 
L 2784 0 
L 2784 1825 
Q 2784 2406 2684 2573 
Q 2584 2741 2328 2741 
Q 2006 2741 1831 2477 
Q 1656 2213 1656 1722 
L 1656 0 
L 531 0 
L 531 3500 
L 1656 3500 
L 1656 2988 
Q 1863 3284 2130 3434 
Q 2397 3584 2719 3584 
Q 3081 3584 3359 3409 
Q 3638 3234 3781 2919 
z
" transform="scale(0.015625)"/>
     </defs>
     <use xlink:href="#DejaVuSans-Bold-50"/>
     <use xlink:href="#DejaVuSans-Bold-65" transform="translate(73.291016 0)"/>
     <use xlink:href="#DejaVuSans-Bold-72" transform="translate(141.113281 0)"/>
     <use xlink:href="#DejaVuSans-Bold-2d" transform="translate(190.429688 0)"/>
     <use xlink:href="#DejaVuSans-Bold-53" transform="translate(231.933594 0)"/>
     <use xlink:href="#DejaVuSans-Bold-74" transform="translate(303.955078 0)"/>
     <use xlink:href="#DejaVuSans-Bold-65" transform="translate(351.757812 0)"/>
     <use xlink:href="#DejaVuSans-Bold-70" transform="translate(419.580078 0)"/>
     <use xlink:href="#DejaVuSans-Bold-20" transform="translate(491.162109 0)"/>
     <use xlink:href="#DejaVuSans-Bold-54" transform="translate(525.976562 0)"/>
     <use xlink:href="#DejaVuSans-Bold-72" transform="translate(583.189453 0)"/>
     <use xlink:href="#DejaVuSans-Bold-61" transform="translate(632.505859 0)"/>
     <use xlink:href="#DejaVuSans-Bold-69" transform="translate(699.986328 0)"/>
     <use xlink:href="#DejaVuSans-Bold-6e" transform="translate(734.263672 0)"/>
     <use xlink:href="#DejaVuSans-Bold-69" transform="translate(805.455078 0)"/>
     <use xlink:href="#DejaVuSans-Bold-6e" transform="translate(839.732422 0)"/>
     <use xlink:href="#DejaVuSans-Bold-67" transform="translate(910.923828 0)"/>
     <use xlink:href="#DejaVuSans-Bold-20" transform="translate(982.505859 0)"/>
     <use xlink:href="#DejaVuSans-Bold-54" transform="translate(1017.320312 0)"/>
     <use xlink:href="#DejaVuSans-Bold-69" transform="translate(1085.533203 0)"/>
     <use xlink:href="#DejaVuSans-Bold-6d" transform="translate(1119.810547 0)"/>
     <use xlink:href="#DejaVuSans-Bold-65" transform="translate(1224.009766 0)"/>
    </g>
   </g>
   <g id="legend_1">
    <g id="patch_7">
     <path d="M 606.45125 75.872187 
L 705.13875 75.872187 
Q 707.13875 75.872187 707.13875 73.872187 
L 707.13875 30.837812 
Q 707.13875 28.837812 705.13875 28.837812 
L 606.45125 28.837812 
Q 604.45125 28.837812 604.45125 30.837812 
L 604.45125 73.872187 
Q 604.45125 75.872187 606.45125 75.872187 
z
" style="fill: #161b22; opacity: 0.8; stroke: #21262d; stroke-linejoin: miter"/>
    </g>
    <g id="line2d_33">
     <path d="M 608.45125 36.93625 
L 618.45125 36.93625 
L 628.45125 36.93625 
" style="fill: none; stroke: #00d4ff; stroke-opacity: 0.9; stroke-width: 1.5; stroke-linecap: square"/>
    </g>
    <g id="text_17">
     <!-- LoRA -->
     <g style="fill: #c9d1d9" transform="translate(636.45125 40.43625) scale(0.1 -0.1)">
      <defs>
       <path id="DejaVuSans-4c" d="M 628 4666 
L 1259 4666 
L 1259 531 
L 3531 531 
L 3531 0 
L 628 0 
L 628 4666 
z
" transform="scale(0.015625)"/>
       <path id="DejaVuSans-52" d="M 2841 2188 
Q 3044 2119 3236 1894 
Q 3428 1669 3622 1275 
L 4263 0 
L 3584 0 
L 2988 1197 
Q 2756 1666 2539 1819 
Q 2322 1972 1947 1972 
L 1259 1972 
L 1259 0 
L 628 0 
L 628 4666 
L 2053 4666 
Q 2853 4666 3247 4331 
Q 3641 3997 3641 3322 
Q 3641 2881 3436 2590 
Q 3231 2300 2841 2188 
z
M 1259 4147 
L 1259 2491 
L 2053 2491 
Q 2509 2491 2742 2702 
Q 2975 2913 2975 3322 
Q 2975 3731 2742 3939 
Q 2509 4147 2053 4147 
L 1259 4147 
z
" transform="scale(0.015625)"/>
       <path id="DejaVuSans-41" d="M 2188 4044 
L 1331 1722 
L 3047 1722 
L 2188 4044 
z
M 1831 4666 
L 2547 4666 
L 4325 0 
L 3669 0 
L 3244 1197 
L 1141 1197 
L 716 0 
L 50 0 
L 1831 4666 
z
" transform="scale(0.015625)"/>
      </defs>
      <use xlink:href="#DejaVuSans-4c"/>
      <use xlink:href="#DejaVuSans-6f" transform="translate(53.962891 0)"/>
      <use xlink:href="#DejaVuSans-52" transform="translate(115.144531 0)"/>
      <use xlink:href="#DejaVuSans-41" transform="translate(180.626953 0)"/>
     </g>
    </g>
    <g id="line2d_34">
     <path d="M 608.45125 51.614375 
L 618.45125 51.614375 
L 628.45125 51.614375 
" style="fill: none; stroke: #ff79c6; stroke-opacity: 0.9; stroke-width: 1.5; stroke-linecap: square"/>
    </g>
    <g id="text_18">
     <!-- QLoRA -->
     <g style="fill: #c9d1d9" transform="translate(636.45125 55.114375) scale(0.1 -0.1)">
      <defs>
       <path id="DejaVuSans-51" d="M 2522 4238 
Q 1834 4238 1429 3725 
Q 1025 3213 1025 2328 
Q 1025 1447 1429 934 
Q 1834 422 2522 422 
Q 3209 422 3611 934 
Q 4013 1447 4013 2328 
Q 4013 3213 3611 3725 
Q 3209 4238 2522 4238 
z
M 3406 84 
L 4238 -825 
L 3475 -825 
L 2784 -78 
Q 2681 -84 2626 -87 
Q 2572 -91 2522 -91 
Q 1538 -91 948 567 
Q 359 1225 359 2328 
Q 359 3434 948 4092 
Q 1538 4750 2522 4750 
Q 3503 4750 4090 4092 
Q 4678 3434 4678 2328 
Q 4678 1516 4351 937 
Q 4025 359 3406 84 
z
" transform="scale(0.015625)"/>
      </defs>
      <use xlink:href="#DejaVuSans-51"/>
      <use xlink:href="#DejaVuSans-4c" transform="translate(78.710938 0)"/>
      <use xlink:href="#DejaVuSans-6f" transform="translate(132.673828 0)"/>
      <use xlink:href="#DejaVuSans-52" transform="translate(193.855469 0)"/>
      <use xlink:href="#DejaVuSans-41" transform="translate(259.337891 0)"/>
     </g>
    </g>
    <g id="line2d_35">
     <path d="M 608.45125 66.2925 
L 618.45125 66.2925 
L 628.45125 66.2925 
" style="fill: none; stroke: #f1fa8c; stroke-opacity: 0.9; stroke-width: 1.5; stroke-linecap: square"/>
    </g>
    <g id="text_19">
     <!-- Full Fine-Tune -->
     <g style="fill: #c9d1d9" transform="translate(636.45125 69.7925) scale(0.1 -0.1)">
      <defs>
       <path id="DejaVuSans-46" d="M 628 4666 
L 3309 4666 
L 3309 4134 
L 1259 4134 
L 1259 2759 
L 3109 2759 
L 3109 2228 
L 1259 2228 
L 1259 0 
L 628 0 
L 628 4666 
z
" transform="scale(0.015625)"/>
       <path id="DejaVuSans-75" d="M 544 1381 
L 544 3500 
L 1119 3500 
L 1119 1403 
Q 1119 906 1312 657 
Q 1506 409 1894 409 
Q 2359 409 2629 706 
Q 2900 1003 2900 1516 
L 2900 3500 
L 3475 3500 
L 3475 0 
L 2900 0 
L 2900 538 
Q 2691 219 2414 64 
Q 2138 -91 1772 -91 
Q 1169 -91 856 284 
Q 544 659 544 1381 
z
M 1991 3584 
L 1991 3584 
z
" transform="scale(0.015625)"/>
       <path id="DejaVuSans-6c" d="M 603 4863 
L 1178 4863 
L 1178 0 
L 603 0 
L 603 4863 
z
" transform="scale(0.015625)"/>
       <path id="DejaVuSans-2d" d="M 313 2009 
L 1997 2009 
L 1997 1497 
L 313 1497 
L 313 2009 
z
" transform="scale(0.015625)"/>
      </defs>
      <use xlink:href="#DejaVuSans-46"/>
      <use xlink:href="#DejaVuSans-75" transform="translate(52.019531 0)"/>
      <use xlink:href="#DejaVuSans-6c" transform="translate(115.398438 0)"/>
      <use xlink:href="#DejaVuSans-6c" transform="translate(143.181641 0)"/>
      <use xlink:href="#DejaVuSans-20" transform="translate(170.964844 0)"/>
      <use xlink:href="#DejaVuSans-46" transform="translate(202.751953 0)"/>
      <use xlink:href="#DejaVuSans-69" transform="translate(253.021484 0)"/>
      <use xlink:href="#DejaVuSans-6e" transform="translate(280.804688 0)"/>
      <use xlink:href="#DejaVuSans-65" transform="translate(344.183594 0)"/>
      <use xlink:href="#DejaVuSans-2d" transform="translate(405.707031 0)"/>
      <use xlink:href="#DejaVuSans-54" transform="translate(432.666016 0)"/>
      <use xlink:href="#DejaVuSans-75" transform="translate(478.625 0)"/>
      <use xlink:href="#DejaVuSans-6e" transform="translate(542.003906 0)"/>
      <use xlink:href="#DejaVuSans-65" transform="translate(605.382812 0)"/>
     </g>
    </g>
   </g>
  </g>
 </g>
 <defs>
  <clipPath id="p9751808f20">
   <rect x="42.53875" y="23.837812" width="669.6" height="277.2"/>
  </clipPath>
 </defs>
</svg>
